<svg width="162" height="20" viewBox="0 0 162 20" fill="none" xmlns="http://www.w3.org/2000/svg">
<path d="M35.8432 5.654V5.822C35.8432 9.35 34.7232 12.024 30.7052 14.026L31.5032 15.146C36.1652 12.808 37.2712 9.462 37.2712 5.654H35.8432ZM31.4472 5.654V6.83H36.7112V5.654H31.4472ZM35.7592 8.804L30.7892 9.126L30.9992 10.4L35.7592 9.938V8.804ZM39.1192 4.352V17.148H40.5892V4.352H39.1192ZM40.1972 9.42V10.624H42.5072V9.42H40.1972ZM48.7221 5.654V5.822C48.7221 9.35 47.6021 12.024 43.5841 14.026L44.3821 15.146C49.0441 12.808 50.1501 9.462 50.1501 5.654H48.7221ZM44.3261 5.654V6.83H49.5901V5.654H44.3261ZM48.6381 8.804L43.6681 9.126L43.8781 10.4L48.6381 9.938V8.804ZM51.9981 4.352V17.148H53.4681V4.352H51.9981ZM53.0761 9.42V10.624H55.3861V9.42H53.0761ZM61.475 11.576V14.642H62.931V11.576H61.475ZM62.203 5.122C59.501 5.122 57.499 6.48 57.499 8.552C57.499 10.638 59.501 11.982 62.203 11.982C64.919 11.982 66.907 10.638 66.907 8.552C66.907 6.48 64.919 5.122 62.203 5.122ZM62.203 6.284C64.121 6.284 65.479 7.166 65.479 8.552C65.479 9.952 64.121 10.82 62.203 10.82C60.299 10.82 58.927 9.952 58.927 8.552C58.927 7.166 60.299 6.284 62.203 6.284ZM56.435 14.39V15.594H68.027V14.39H56.435ZM69.2999 11.212V12.388H80.8639V11.212H69.2999ZM74.3399 9.574V11.562H75.7959V9.574H74.3399ZM70.5879 13.354V14.53H77.9379V17.162H79.4079V13.354H70.5879ZM70.7839 8.93V10.064H79.5619V8.93H70.7839ZM70.7839 4.688V9.49H72.2399V5.822H79.4779V4.688H70.7839ZM71.8199 6.802V7.894H79.1699V6.802H71.8199ZM87.9608 5.108C85.3008 5.108 83.2568 6.536 83.2568 8.706C83.2568 10.89 85.3008 12.318 87.9608 12.318C90.6348 12.318 92.6648 10.89 92.6648 8.706C92.6648 6.536 90.6348 5.108 87.9608 5.108ZM87.9608 6.298C89.8648 6.298 91.2508 7.236 91.2508 8.706C91.2508 10.162 89.8648 11.114 87.9608 11.114C86.0708 11.114 84.6848 10.162 84.6848 8.706C84.6848 7.236 86.0708 6.298 87.9608 6.298ZM82.1928 14.32V15.538H93.7848V14.32H82.1928ZM95.0717 14.46V15.664H106.664V14.46H95.0717ZM100.112 11.856V14.95H101.568V11.856H100.112ZM96.4297 5.262V6.438H103.822V8.146H96.4577V11.688H97.9137V9.308H105.278V5.262H96.4297ZM96.4577 11.086V12.276H105.572V11.086H96.4577ZM116.037 7.838V9.014H118.767V7.838H116.037ZM115.953 11.044V12.22H118.725V11.044H115.953ZM120.615 4.366V17.162H122.029V4.366H120.615ZM118.025 4.674V16.546H119.397V4.674H118.025ZM115.155 5.934V6.214C115.155 9.266 113.951 11.632 110.997 13.41L111.837 14.446C115.337 12.374 116.569 9.406 116.569 5.934H115.155ZM111.641 5.934V7.124H115.687V5.934H111.641ZM123.96 10.694V11.87H135.552V10.694H123.96ZM129 8.874V11.212H130.456V8.874H129ZM128.986 4.576V5.066C128.986 6.648 127.152 8.09 124.604 8.412L125.15 9.574C128.048 9.126 130.246 7.39 130.246 5.066V4.576H128.986ZM129.224 4.576V5.066C129.224 7.418 131.422 9.112 134.306 9.574L134.852 8.412C132.304 8.09 130.47 6.676 130.47 5.066V4.576H129.224ZM125.248 12.962V14.124H132.654V17.162H134.11V12.962H125.248ZM145.309 4.366V17.162H146.765V4.366H145.309ZM146.429 9.504V10.722H148.753V9.504H146.429ZM136.783 6.34V7.516H144.287V6.34H136.783ZM140.577 8.44C138.743 8.44 137.399 9.672 137.399 11.422C137.399 13.186 138.743 14.418 140.577 14.418C142.397 14.418 143.741 13.186 143.741 11.422C143.741 9.672 142.397 8.44 140.577 8.44ZM140.577 9.644C141.599 9.644 142.341 10.344 142.341 11.422C142.341 12.5 141.599 13.214 140.577 13.214C139.541 13.214 138.799 12.5 138.799 11.422C138.799 10.344 139.541 9.644 140.577 9.644ZM139.821 4.548V6.83H141.291V4.548H139.821ZM158.818 4.366V17.162H160.288V4.366H158.818ZM155.066 5.724V5.976C155.066 9.392 153.512 11.926 149.83 13.704L150.6 14.88C154.996 12.738 156.508 9.518 156.508 5.724H155.066ZM150.46 5.724V6.9H155.724V5.724H150.46Z" fill="black"/>
<path d="M11 0C4.92484 0 0 3.82576 0 8.54494C0 11.596 2.05892 14.2732 5.15604 15.7849C4.98754 16.3574 4.0733 19.468 4.03686 19.7123C4.03686 19.7123 4.015 19.8959 4.13566 19.9659C4.25638 20.036 4.39828 19.9816 4.39828 19.9816C4.74437 19.934 8.41149 17.3961 9.04626 16.9554C9.68034 17.0439 10.3333 17.0899 11 17.0899C17.0752 17.0899 22 13.2643 22 8.54494C22 3.82576 17.0752 0 11 0Z" fill="#381F1F"/>
<path fill-rule="evenodd" clip-rule="evenodd" d="M4.91847 11.5321C4.56847 11.5321 4.28384 11.2643 4.28384 10.9349V7.22052H3.29364C2.95023 7.22052 2.6709 6.94579 2.6709 6.60827C2.6709 6.27076 2.9503 5.99609 3.29364 5.99609H6.54331C6.88672 5.99609 7.16605 6.27076 7.16605 6.60827C7.16605 6.94579 6.88665 7.22052 6.54331 7.22052H5.5531V10.9349C5.5531 11.2643 5.26848 11.5321 4.91847 11.5321ZM10.4832 11.5239C10.2185 11.5239 10.0161 11.4181 9.9551 11.2478L9.64084 10.4373L7.70567 10.4372L7.39127 11.2482C7.33043 11.4181 7.1281 11.5239 6.86348 11.5239C6.72426 11.5241 6.58662 11.4946 6.46005 11.4377C6.28509 11.3581 6.11692 11.1395 6.30963 10.5498L7.82763 6.61329C7.9346 6.3139 8.25938 6.00544 8.67277 5.99616C9.08727 6.00537 9.41204 6.3139 9.51922 6.6139L11.0366 10.5486C11.2297 11.1397 11.0616 11.3585 10.8866 11.4377C10.76 11.4946 10.6224 11.524 10.4832 11.5239ZM8.67325 7.55567L9.30713 9.32977H8.03938L8.67325 7.55567ZM12.0579 11.4409C11.7225 11.4409 11.4497 11.1837 11.4497 10.8677V6.62135C11.4497 6.27651 11.7403 5.99609 12.0976 5.99609C12.4547 5.99609 12.7454 6.27651 12.7454 6.62135V10.2946H14.0939C14.4293 10.2946 14.7021 10.5518 14.7021 10.8677C14.7021 11.1837 14.4293 11.4409 14.0939 11.4409H12.0579ZM14.949 10.8987C14.949 11.2435 15.2336 11.5239 15.5836 11.5239C15.7519 11.5237 15.9132 11.4577 16.0323 11.3405C16.1513 11.2232 16.2182 11.0642 16.2184 10.8984V9.53419L16.4386 9.31724L17.9269 11.2601C17.9859 11.3376 18.0624 11.4005 18.1504 11.4437C18.2384 11.4868 18.3355 11.509 18.4338 11.5086C18.5717 11.5089 18.7059 11.4646 18.8156 11.3824C18.8823 11.3331 18.9384 11.2714 18.9807 11.2006C19.0229 11.1298 19.0505 11.0514 19.0618 10.9701C19.0737 10.8887 19.069 10.806 19.048 10.7264C19.0271 10.6469 18.9904 10.5723 18.94 10.5069L17.3778 8.46799L18.8241 7.04333C18.9235 6.94532 18.9733 6.81012 18.9641 6.66267C18.955 6.51649 18.8887 6.37574 18.7775 6.26628C18.6583 6.14897 18.4992 6.08164 18.3408 6.08164C18.205 6.08164 18.0798 6.13102 17.9888 6.22077L16.2182 7.96519V6.62135C16.2182 6.27651 15.9336 5.99609 15.5836 5.99609C15.2336 5.99609 14.949 6.27651 14.949 6.62135V10.8987Z" fill="#FFE812"/>
</svg>
