<svg width="130" height="20" viewBox="0 0 130 20" fill="none" xmlns="http://www.w3.org/2000/svg">
<path d="M24.19 5.668V13.144H25.646V5.668H24.19ZM24.19 12.752V13.998H25.044C26.626 13.998 28.04 13.928 29.65 13.606L29.454 12.36C27.9 12.682 26.556 12.752 25.044 12.752H24.19ZM33.164 4.366V17.162H34.578V4.366H33.164ZM27.746 8.552V9.742H30.826V8.552H27.746ZM30.462 4.632V16.546H31.834V4.632H30.462ZM45.5809 4.352V17.176H47.0509V4.352H45.5809ZM40.2329 5.304C38.3289 5.304 36.9429 7.054 36.9429 9.812C36.9429 12.57 38.3289 14.334 40.2329 14.334C42.1509 14.334 43.5369 12.57 43.5369 9.812C43.5369 7.054 42.1509 5.304 40.2329 5.304ZM40.2329 6.634C41.3529 6.634 42.1229 7.824 42.1229 9.812C42.1229 11.814 41.3529 13.018 40.2329 13.018C39.1129 13.018 38.3429 11.814 38.3429 9.812C38.3429 7.824 39.1129 6.634 40.2329 6.634ZM58.5578 4.352V17.176H60.0138V4.352H58.5578ZM55.3938 9V10.19H58.9778V9H55.3938ZM49.8918 5.36V14.054H55.8838V5.36H54.4418V8.594H51.3478V5.36H49.8918ZM51.3478 9.742H54.4418V12.864H51.3478V9.742ZM62.2807 14.46V15.664H73.8727V14.46H62.2807ZM67.3207 11.856V14.95H68.7767V11.856H67.3207ZM63.6387 5.262V6.438H71.0307V8.146H63.6667V11.688H65.1227V9.308H72.4867V5.262H63.6387ZM63.6667 11.086V12.276H72.7807V11.086H63.6667ZM83.2462 7.838V9.014H85.9762V7.838H83.2462ZM83.1622 11.044V12.22H85.9342V11.044H83.1622ZM87.8242 4.366V17.162H89.2382V4.366H87.8242ZM85.2342 4.674V16.546H86.6062V4.674H85.2342ZM82.3642 5.934V6.214C82.3642 9.266 81.1602 11.632 78.2062 13.41L79.0462 14.446C82.5462 12.374 83.7782 9.406 83.7782 5.934H82.3642ZM78.8502 5.934V7.124H82.8962V5.934H78.8502ZM91.1691 10.694V11.87H102.761V10.694H91.1691ZM96.2091 8.874V11.212H97.6651V8.874H96.2091ZM96.1951 4.576V5.066C96.1951 6.648 94.3611 8.09 91.8131 8.412L92.3591 9.574C95.2571 9.126 97.4551 7.39 97.4551 5.066V4.576H96.1951ZM96.4331 4.576V5.066C96.4331 7.418 98.6311 9.112 101.515 9.574L102.061 8.412C99.5131 8.09 97.6791 6.676 97.6791 5.066V4.576H96.4331ZM92.4571 12.962V14.124H99.8631V17.162H101.319V12.962H92.4571ZM112.518 4.366V17.162H113.974V4.366H112.518ZM113.638 9.504V10.722H115.962V9.504H113.638ZM103.992 6.34V7.516H111.496V6.34H103.992ZM107.786 8.44C105.952 8.44 104.608 9.672 104.608 11.422C104.608 13.186 105.952 14.418 107.786 14.418C109.606 14.418 110.95 13.186 110.95 11.422C110.95 9.672 109.606 8.44 107.786 8.44ZM107.786 9.644C108.808 9.644 109.55 10.344 109.55 11.422C109.55 12.5 108.808 13.214 107.786 13.214C106.75 13.214 106.008 12.5 106.008 11.422C106.008 10.344 106.75 9.644 107.786 9.644ZM107.03 4.548V6.83H108.5V4.548H107.03ZM126.027 4.366V17.162H127.497V4.366H126.027ZM122.275 5.724V5.976C122.275 9.392 120.721 11.926 117.039 13.704L117.809 14.88C122.205 12.738 123.717 9.518 123.717 5.724H122.275ZM117.669 5.724V6.9H122.933V5.724H117.669Z" fill="white"/>
<path d="M10.173 11.0329L4.61162 3H0V18H4.82702V9.9671L10.3884 18H15V3H10.173V11.0329Z" fill="white"/>
</svg>
