<svg width="170" height="148" viewBox="0 0 170 148" fill="none" xmlns="http://www.w3.org/2000/svg">
<path d="M107 38.5C107 54.7924 93.7924 68 77.5 68C61.2076 68 48 54.7924 48 38.5C48 22.2076 61.2076 9 77.5 9C93.7924 9 107 22.2076 107 38.5Z" fill="#FADE44"/>
<path d="M25.9542 103.286H21.6282V101.648H27.8722V102.754C27.8722 106.772 25.5482 108.424 21.3202 108.83V107.164C24.3582 106.842 25.9542 105.61 25.9542 103.286ZM27.9142 105.904V104.224H30.1402V101.494H32.0582V108.76H30.1402V105.904H27.9142ZM22.3702 109.278H32.0582V114.486H22.3702V109.278ZM24.2882 110.93V112.848H30.1402V110.93H24.2882ZM37.4756 106.856C36.8876 107.738 35.7396 108.606 34.5356 109.04V107.276C35.7116 106.646 36.4956 105.596 36.4956 103.44V101.564H38.3716V103.384C38.3716 105.554 39.1696 106.352 40.3176 106.982V108.746C39.1836 108.382 38.0916 107.682 37.4756 106.856ZM43.8316 101.494H45.6656V108.956H43.8316V106.016H42.6976V108.872H40.8776V101.564H42.6976V104.336H43.8316V101.494ZM43.7476 111.21H35.7396V109.558H45.6656V114.556H43.7476V111.21ZM52.7631 103.3H48.5071V101.648H54.6811V102.572H57.0191V101.494H58.9371V107.836H57.0191V106.66H54.3031V105.05H57.0191V104.196H54.4991C53.8551 106.744 51.5591 107.654 48.1991 107.934V106.282C51.0271 106.072 52.7491 105.12 52.7631 103.3ZM51.1671 112.918H59.0771V114.486H49.2491V110.65H57.0191V109.866H49.2491V108.326H58.9371V112.176H51.1671V112.918ZM66.7345 103.384H62.0445V101.718H68.6525V106.8C68.6525 107.892 68.5545 109.236 68.3585 110.076H66.4825C66.6505 109.25 66.7345 108.088 66.7345 107.094V103.384ZM65.2365 106.366V111.98H67.9245C68.9605 111.98 69.7165 111.812 70.1225 111.448V101.494H72.0405V106.59H73.9725V108.242H72.0405V114.346H70.1225V113.016C69.7025 113.436 68.7645 113.646 67.5465 113.646H61.6665V111.98H63.3185V106.366H65.2365ZM79.81 104.532V103.384H75.386V101.718H81.7V104.308C81.7 109.194 79.936 112.484 75.316 113.646V111.826C78.494 110.902 79.81 108.326 79.81 104.532ZM85.48 106.59H87.412V108.242H85.48V114.346H83.562V101.494H85.48V106.59ZM92.7867 104.798C92.7867 103.594 93.2347 102.67 93.9767 102.11C94.5507 101.662 95.3067 101.424 96.1887 101.424C97.0707 101.424 97.8267 101.662 98.4007 102.11C98.9607 102.53 99.3527 103.146 99.5067 103.944H101.453V101.494H103.371V108.34H101.453V105.596H99.5207C99.3667 106.422 98.9747 107.066 98.4007 107.5C97.8267 107.948 97.0707 108.186 96.1887 108.186C95.3067 108.186 94.5507 107.948 93.9767 107.5C93.2347 106.926 92.7867 106.016 92.7867 104.798ZM94.6627 104.798C94.6627 105.4 94.8447 105.876 95.1807 106.184C95.4467 106.408 95.7827 106.548 96.1887 106.548C96.5947 106.548 96.9447 106.408 97.1967 106.184C97.5327 105.876 97.7147 105.4 97.7147 104.798C97.7147 104.21 97.5327 103.72 97.1967 103.426C96.9447 103.202 96.5947 103.062 96.1887 103.062C95.7827 103.062 95.4467 103.202 95.1807 103.426C94.8447 103.72 94.6627 104.21 94.6627 104.798ZM96.6227 108.802H98.3867V114.486H93.5427V108.802H95.3067V110.202H96.6227V108.802ZM95.3067 111.742V112.904H96.6227V111.742H95.3067ZM102.195 108.802V109.95C102.195 111.686 102.685 112.428 103.707 112.89V114.556C102.755 114.388 101.747 113.786 101.257 113.1C100.753 113.786 99.7727 114.388 98.7927 114.556V112.89C99.8427 112.428 100.305 111.686 100.305 109.95V108.802H102.195ZM111.742 104.42C110.594 105.498 108.494 106.352 106.324 106.478V104.84C108.606 104.574 110.776 103.594 110.776 101.774V101.564H112.694V101.774C112.694 103.594 114.794 104.546 117.16 104.84V106.478C114.962 106.338 112.96 105.512 111.742 104.42ZM105.974 106.954H117.538V108.592H105.974V106.954ZM108.704 109.264V110.314H114.808V109.264H116.726V114.486H106.786V109.264H108.704ZM114.808 111.938H108.704V112.862H114.808V111.938ZM125.742 113.492H119.89V101.648H121.794V111.826H126.106C127.142 111.826 127.912 111.658 128.318 111.308V101.494H130.236V114.346H128.318V112.862C127.898 113.282 126.946 113.492 125.742 113.492ZM138.859 113.492H133.259V101.718H139.573V103.384H135.163V111.826H139.237C140.273 111.826 141.029 111.658 141.435 111.308V101.494H143.353V106.59H145.285V108.242H143.353V114.346H141.435V112.862C141.015 113.282 140.077 113.492 138.859 113.492ZM148.588 111.364H146.474V113.464H148.588V111.364ZM7.19205 139.492H1.59205V127.718H7.90605V129.384H3.49605V137.826H7.57005C8.60605 137.826 9.36205 137.658 9.76805 137.308V127.494H11.686V132.59H13.618V134.242H11.686V140.346H9.76805V138.862C9.34805 139.282 8.41005 139.492 7.19205 139.492ZM17.3555 132.296H25.4615V133.892H15.4375V129.958H23.4595V129.23H15.4375V127.648H25.3775V131.554H17.3555V132.296ZM14.6255 134.648H26.1895V136.272H14.6255V134.648ZM17.3555 138.764H25.6015V140.402H15.4375V136.958H17.3555V138.764ZM36.9122 129.286H32.5862V127.648H38.8302V128.754C38.8302 132.772 36.5062 134.424 32.2782 134.83V133.164C35.3162 132.842 36.9122 131.61 36.9122 129.286ZM38.8722 131.904V130.224H41.0982V127.494H43.0162V134.76H41.0982V131.904H38.8722ZM33.3282 135.278H43.0162V140.486H33.3282V135.278ZM35.2462 136.93V138.848H41.0982V136.93H35.2462ZM48.4336 132.856C47.8456 133.738 46.6976 134.606 45.4936 135.04V133.276C46.6696 132.646 47.4536 131.596 47.4536 129.44V127.564H49.3296V129.384C49.3296 131.554 50.1276 132.352 51.2756 132.982V134.746C50.1416 134.382 49.0496 133.682 48.4336 132.856ZM54.7896 127.494H56.6236V134.956H54.7896V132.016H53.6556V134.872H51.8356V127.564H53.6556V130.336H54.7896V127.494ZM54.7056 137.21H46.6976V135.558H56.6236V140.556H54.7056V137.21ZM66.1011 134.102C66.0731 136.104 65.8631 137.644 65.1351 138.582C64.6031 139.282 63.7491 139.66 62.7411 139.66C61.7471 139.66 60.8931 139.282 60.3471 138.582C59.5631 137.56 59.3951 135.838 59.3951 133.584C59.3951 131.344 59.5631 129.622 60.3471 128.6C60.8931 127.9 61.7471 127.508 62.7411 127.508C63.7491 127.508 64.6031 127.9 65.1351 128.6C65.7791 129.44 66.0171 130.756 66.0871 132.436H67.9631V127.494H69.8811V140.346H67.9631V134.102H66.1011ZM61.2851 133.584C61.2851 135.488 61.3831 136.902 61.8031 137.532C62.0131 137.84 62.3491 138.008 62.7411 138.008C63.1331 138.008 63.4831 137.84 63.6931 137.532C64.1131 136.902 64.1971 135.488 64.1971 133.584C64.1971 131.694 64.1131 130.28 63.6931 129.65C63.4831 129.342 63.1331 129.174 62.7411 129.174C62.3491 129.174 62.0131 129.342 61.8031 129.65C61.3831 130.28 61.2851 131.694 61.2851 133.584ZM75.2285 131.372H83.3345V132.786H73.3105V129.51H81.3325V129.062H73.3105V127.648H83.2505V130.91H75.2285V131.372ZM72.4985 133.29H84.0625V134.774H72.4985V133.29ZM75.2285 139.1H83.5445V140.486H73.3105V137.224H81.3325V136.692H73.3105V135.334H83.2505V138.568H75.2285V139.1ZM90.3052 130.798C90.3052 129.594 90.7532 128.67 91.4952 128.11C92.0692 127.662 92.8252 127.424 93.7072 127.424C94.5892 127.424 95.3452 127.662 95.9192 128.11C96.6612 128.67 97.1092 129.594 97.1092 130.798C97.1092 132.016 96.6612 132.926 95.9192 133.5C95.3452 133.948 94.5892 134.186 93.7072 134.186C92.8252 134.186 92.0692 133.948 91.4952 133.5C90.7532 132.926 90.3052 132.016 90.3052 130.798ZM92.1812 130.798C92.1812 131.4 92.3632 131.876 92.6992 132.184C92.9652 132.408 93.3012 132.548 93.7072 132.548C94.1132 132.548 94.4632 132.408 94.7152 132.184C95.0512 131.876 95.2332 131.4 95.2332 130.798C95.2332 130.21 95.0512 129.72 94.7152 129.426C94.4632 129.202 94.1132 129.062 93.7072 129.062C93.3012 129.062 92.9652 129.202 92.6992 129.426C92.3632 129.72 92.1812 130.21 92.1812 130.798ZM98.9712 134.312V127.494H100.889V134.312H98.9712ZM98.9712 134.802H100.889V140.486H91.2012V134.802H93.1192V136.146H98.9712V134.802ZM93.1192 137.784V138.848H98.9712V137.784H93.1192ZM105.803 133.416H109.401C110.087 133.416 110.675 133.402 111.249 133.262V134.76C110.675 134.942 110.031 134.998 109.289 134.998H103.899V130.504H107.917V129.23H103.899V127.648H109.821V132.086H105.803V133.416ZM110.269 131.274H112.411V130.49H110.269V128.866H112.411V127.494H114.329V135.404H112.411V132.884H110.269V131.274ZM112.411 137.658H104.501V136.006H114.329V140.556H112.411V137.658ZM118.948 127.116H120.866V128.838H122.686V130.504H117.058V128.838H118.948V127.116ZM117.31 135.446C117.31 133.654 117.618 132.31 118.402 131.638C118.794 131.316 119.298 131.134 119.942 131.134C120.586 131.134 121.09 131.316 121.482 131.638C122.266 132.31 122.574 133.654 122.574 135.446C122.574 137.238 122.266 138.582 121.482 139.254C121.09 139.576 120.586 139.758 119.942 139.758C119.298 139.758 118.794 139.576 118.402 139.254C117.618 138.582 117.31 137.238 117.31 135.446ZM119.144 135.446C119.144 136.832 119.27 137.63 119.55 137.966C119.662 138.078 119.788 138.148 119.942 138.148C120.096 138.148 120.222 138.078 120.334 137.966C120.614 137.63 120.74 136.832 120.74 135.446C120.74 134.074 120.614 133.262 120.334 132.926C120.222 132.814 120.096 132.744 119.942 132.744C119.788 132.744 119.662 132.814 119.55 132.926C119.27 133.262 119.144 134.074 119.144 135.446ZM126.116 140.346V134.102H125.276V140.192H123.484V127.564H125.276V132.422H126.116V127.494H127.936V140.346H126.116ZM139.304 130.098V127.718H141.222V135.586H137.134V138.12H141.866V139.786H130.442V138.12H135.23V135.586H131.086V127.718H133.004V130.098H139.304ZM139.304 131.778H133.004V133.906H139.304V131.778ZM146.513 137.154C145.911 138.134 144.819 139.016 143.615 139.492V137.728C144.889 136.958 145.561 135.74 145.561 132.926V127.648H147.451V132.926C147.451 135.74 148.109 136.944 149.397 137.728V139.492C148.193 139.03 147.101 138.12 146.513 137.154ZM152.953 140.346V127.494H154.815V140.346H152.953ZM150.195 140.192V133.654H148.487V131.988H150.195V127.564H152.043V140.192H150.195ZM166.477 131.498C166.477 130.812 166.225 130.322 165.777 129.958C165.161 129.468 164.181 129.258 163.047 129.258C161.913 129.258 160.933 129.468 160.317 129.958C159.869 130.322 159.617 130.812 159.617 131.498C159.617 132.17 159.869 132.66 160.317 133.024C160.933 133.514 161.913 133.724 163.047 133.724C164.181 133.724 165.161 133.514 165.777 133.024C166.225 132.66 166.477 132.17 166.477 131.498ZM168.395 131.498C168.395 132.73 167.919 133.654 167.107 134.298C166.869 134.48 166.617 134.634 166.323 134.774V138.12H168.745V139.786H157.321V138.12H159.812V134.788C159.505 134.648 159.239 134.494 158.987 134.298C158.175 133.654 157.699 132.73 157.699 131.498C157.699 130.252 158.175 129.342 158.987 128.698C159.953 127.942 161.367 127.578 163.047 127.578C164.727 127.578 166.155 127.942 167.107 128.698C167.919 129.342 168.395 130.252 168.395 131.498ZM164.433 135.306C163.999 135.376 163.537 135.404 163.047 135.404C162.585 135.404 162.137 135.376 161.717 135.32V138.12H164.433V135.306Z" fill="#757575"/>
<path d="M88.3842 81.6665H85.8716C85.8738 82.6694 86.1396 83.6302 86.6109 84.3369C87.0822 85.0436 87.7201 85.4391 88.3842 85.4357H90.8968C91.5615 85.4391 92.1994 85.0436 92.6707 84.3369C93.1415 83.6302 93.4078 82.6693 93.41 81.6665H88.3842Z" fill="#1E2329"/>
<path d="M107.231 58.7033C107.234 57.7457 106.965 56.8065 106.454 55.9913C105.944 55.1754 105.211 54.516 104.339 54.0874C104.991 53.2021 105.341 52.1374 105.338 51.0454C105.351 49.701 104.82 48.4057 103.861 47.4452C102.902 46.484 101.594 45.9357 100.225 45.9201H86.8382C86.1085 45.9201 85.5169 46.5003 85.5169 47.2171C85.5169 47.9333 86.1085 48.514 86.8382 48.514H100.225C101.115 48.5575 101.92 49.0496 102.353 49.8151C102.786 50.5805 102.786 51.5109 102.353 52.2763C101.92 53.0418 101.116 53.5334 100.225 53.5773H93.2873C92.5576 53.5773 91.966 54.1581 91.966 54.8743C91.966 55.5905 92.5576 56.1713 93.2873 56.1713H102.117C103.007 56.2153 103.812 56.7069 104.245 57.4723C104.678 58.2378 104.678 59.1687 104.245 59.9336C103.813 60.699 103.007 61.1912 102.117 61.2352H93.9179C93.1882 61.2352 92.5966 61.8159 92.5966 62.5321C92.5966 63.2484 93.1882 63.8291 93.9179 63.8291H100.855C101.746 63.8725 102.551 64.3647 102.984 65.1301C103.417 65.8956 103.417 66.826 102.984 67.5914C102.551 68.3569 101.746 68.849 100.855 68.8924H93.2873C92.5576 68.8924 91.966 69.4732 91.966 70.1894C91.966 70.9056 92.5576 71.4864 93.2873 71.4864H98.3325C99.2232 71.5304 100.028 72.0219 100.461 72.7874C100.895 73.5528 100.895 74.4838 100.461 75.2493C100.028 76.0147 99.2232 76.5069 98.3325 76.5503H73.4207C71.0559 76.5051 68.806 75.5416 67.1638 73.8707C65.5216 72.1997 64.6214 69.9583 64.6604 67.6365V57.4269C64.6674 55.8404 65.0969 54.2834 65.9062 52.91C67.2175 50.6362 69.4772 49.0394 72.0904 48.5403C72.544 48.5096 72.9646 48.296 73.2519 47.9503C73.2596 47.9399 73.2696 47.9324 73.2767 47.9219C74.1762 46.5682 75.0734 45.211 76.0567 43.9141C76.7752 42.8313 77.8475 42.0218 79.0982 41.6184C79.7559 41.4597 80.4472 41.5049 81.0771 41.7469C81.7077 41.9889 82.2463 42.4168 82.6197 42.9715V39.593C82.6185 39.4344 81.6694 39.2004 81.5208 39.1599C80.2118 38.8241 78.8298 38.8901 77.5603 39.3487C76.2907 39.8072 75.1949 40.6364 74.4203 41.7243C73.6458 42.6593 72.0308 45.039 71.3531 46.0483C68.6999 46.6007 66.3203 48.0343 64.6168 50.1065C62.9138 52.1793 61.9895 54.7641 62.0001 57.4269V67.6365C62.0001 69.9352 62.6956 72.1817 63.9979 74.0919C65.3004 76.0014 67.1514 77.4889 69.3169 78.3643C71.7212 79.2994 74.3079 79.1442 76.8407 79.1442H98.3322C99.7025 79.1286 101.01 78.5803 101.969 77.6191C102.928 76.6586 103.459 75.3633 103.447 74.0183C103.449 73.0114 103.151 72.026 102.591 71.1823C104.168 70.5859 105.359 69.2833 105.793 67.6787C106.226 66.0743 105.85 64.3634 104.78 63.078C106.31 62.1313 107.236 60.4786 107.231 58.7033Z" fill="#1E2329"/>
<path d="M90.7858 0.640139C90.5425 0.242632 90.1086 0 89.641 0C89.1734 0 88.7395 0.242632 88.4962 0.640139L68.4727 33.6187C68.2247 34.0257 68.2188 34.5345 68.4555 34.9479C68.6941 35.3619 69.1374 35.6175 69.6175 35.6169H85.3026V42.718H93.3119V35.6169H109.665C110.145 35.6175 110.588 35.3619 110.827 34.9479C111.064 34.5345 111.057 34.0257 110.809 33.6187L90.7858 0.640139ZM89.641 30.3397C89.1059 30.3362 88.6247 30.0123 88.4228 29.5194C88.2204 29.0259 88.3358 28.4599 88.7158 28.0848C89.0958 27.7091 89.6653 27.5978 90.1595 27.8027C90.6538 28.0077 90.9758 28.4876 90.9758 29.0206C90.9734 29.7514 90.3756 30.3421 89.641 30.3397H89.641ZM90.9758 23.744C90.9711 24.4736 90.3744 25.0626 89.641 25.0626C88.9076 25.0626 88.3115 24.4737 88.3062 23.744V11.8717C88.3115 11.1421 88.9076 10.5532 89.641 10.5532C90.3744 10.5532 90.971 11.142 90.9758 11.8717V23.744Z" fill="#1E2329"/>
</svg>
