<svg width="237" height="199" viewBox="0 0 237 199" fill="none" xmlns="http://www.w3.org/2000/svg">
<path d="M8.20523 172.18C8.20523 175.42 9.70523 176.88 12.0452 177.56V179.98C9.84524 179.58 7.90523 178.52 6.86523 177.12C5.86523 178.58 3.92523 179.74 1.64523 180.18V177.78C4.06523 177.04 5.46523 175.28 5.46523 172.18V170.04H8.20523V172.18ZM14.4452 180.42V175.42H10.7452V173.06H14.4452V169.94H17.1852V180.42H14.4452ZM3.14523 184.68C3.14523 183.36 3.82523 182.42 4.84523 181.8C6.28523 180.92 8.40523 180.66 10.3652 180.66C12.3452 180.66 14.4652 180.92 15.8852 181.8C16.9252 182.42 17.6052 183.36 17.6052 184.68C17.6052 186 16.9252 186.96 15.8852 187.58C14.4652 188.44 12.3452 188.7 10.3652 188.7C8.40523 188.7 6.28523 188.44 4.84523 187.58C3.82523 186.96 3.14523 186 3.14523 184.68ZM5.88523 184.68C5.88523 185.14 6.12523 185.46 6.56523 185.72C7.42523 186.2 8.94523 186.36 10.3652 186.36C11.8052 186.36 13.3252 186.2 14.1852 185.72C14.6052 185.46 14.8652 185.14 14.8652 184.68C14.8652 184.24 14.6052 183.92 14.1852 183.66C13.3252 183.16 11.8052 183.02 10.3652 183.02C8.94523 183.02 7.42523 183.16 6.56523 183.66C6.12523 183.92 5.88523 184.24 5.88523 184.68ZM33.5245 172.52H21.9445V170.16H36.2645V173.76C36.2645 174.84 36.1845 175.96 35.9445 176.74H33.2645C33.4645 175.96 33.5245 174.88 33.5245 173.88V172.52ZM20.9045 177.66H26.2245V174.14H28.9645V177.66H37.4245V180.04H20.9045V177.66ZM21.7445 185.06C21.7445 183.72 22.4245 182.84 23.5645 182.26C24.9445 181.56 27.0045 181.32 29.1845 181.32C31.3645 181.32 33.4245 181.56 34.8045 182.26C35.9445 182.84 36.6245 183.72 36.6245 185.06C36.6245 186.42 35.9445 187.3 34.8045 187.88C33.4245 188.58 31.3645 188.82 29.1845 188.82C27.0045 188.82 24.9445 188.58 23.5645 187.88C22.4245 187.3 21.7445 186.42 21.7445 185.06ZM24.4845 185.06C24.4845 185.46 24.7045 185.76 25.1245 185.96C25.8845 186.38 27.3045 186.5 29.1845 186.5C31.0645 186.5 32.4845 186.38 33.2445 185.96C33.6645 185.76 33.8845 185.46 33.8845 185.06C33.8845 184.68 33.6645 184.38 33.2445 184.16C32.4845 183.76 31.0645 183.64 29.1845 183.64C27.3045 183.64 25.8845 183.76 25.1245 184.16C24.7045 184.38 24.4845 184.68 24.4845 185.06ZM50.3037 170.16V172.5H46.8637V172.82C46.8637 175.98 48.2837 177.28 50.6437 177.78V180.18C48.4637 179.86 46.5837 178.9 45.5437 177.48C44.4437 178.9 42.5237 180.12 40.3437 180.4V177.98C42.7237 177.5 44.1237 176.02 44.1237 172.82V172.5H40.6837V170.16H50.3037ZM52.8437 180.6V176.18H49.3437V173.84H52.8437V169.94H55.5837V180.6H52.8437ZM52.8437 183.82H41.5437V181.46H55.5837V188.6H52.8437V183.82ZM72.4829 175.76C72.4829 174.78 72.1029 173.94 71.4629 173.44C70.6029 172.8 69.2829 172.46 67.5829 172.46C65.9029 172.46 64.5629 172.8 63.7029 173.44C63.0629 173.94 62.6829 174.78 62.6829 175.76C62.6829 176.74 63.0629 177.58 63.7029 178.08C64.5629 178.72 65.9029 179.06 67.5829 179.06C69.2829 179.06 70.6029 178.72 71.4629 178.08C72.1029 177.58 72.4829 176.74 72.4829 175.76ZM59.9429 175.76C59.9429 173.92 60.7629 172.34 62.0829 171.4C63.4629 170.44 65.3429 170.06 67.5829 170.06C69.8229 170.06 71.7229 170.44 73.0829 171.4C74.4029 172.34 75.2229 173.92 75.2229 175.76C75.2229 177.6 74.4029 179.18 73.0829 180.12C71.7229 181.08 69.8229 181.46 67.5829 181.46C65.3429 181.46 63.4629 181.08 62.0829 180.12C60.7629 179.18 59.9429 177.6 59.9429 175.76ZM59.4029 185.12H75.7229V187.5H59.4029V185.12ZM82.2621 179.74H94.2021V182.12H88.1621V185.12H94.9221V187.5H78.6021V185.12H85.4421V182.12H79.5221V174.96H91.2621V172.64H79.5221V170.26H94.0021V177.34H82.2621V179.74Z" fill="#1F2C37"/>
<path d="M110.48 174.28V172.64H104.16V170.26H113.18V173.96C113.18 180.94 110.66 185.64 104.06 187.3V184.7C108.6 183.38 110.48 179.7 110.48 174.28ZM118.58 177.22H121.34V179.58H118.58V188.3H115.84V169.94H118.58V177.22ZM123.139 174.66C123.139 172.94 123.779 171.62 124.839 170.82C125.659 170.18 126.739 169.84 127.999 169.84C129.259 169.84 130.339 170.18 131.159 170.82C132.219 171.62 132.859 172.94 132.859 174.66C132.859 176.4 132.219 177.7 131.159 178.52C130.339 179.16 129.259 179.5 127.999 179.5C126.739 179.5 125.659 179.16 124.839 178.52C123.779 177.7 123.139 176.4 123.139 174.66ZM125.819 174.66C125.819 175.52 126.079 176.2 126.559 176.64C126.939 176.96 127.419 177.16 127.999 177.16C128.579 177.16 129.079 176.96 129.439 176.64C129.919 176.2 130.179 175.52 130.179 174.66C130.179 173.82 129.919 173.12 129.439 172.7C129.079 172.38 128.579 172.18 127.999 172.18C127.419 172.18 126.939 172.38 126.559 172.7C126.079 173.12 125.819 173.82 125.819 174.66ZM135.519 179.68V169.94H138.259V179.68H135.519ZM135.519 180.38H138.259V188.5H124.419V180.38H127.159V182.3H135.519V180.38ZM127.159 184.64V186.16H135.519V184.64H127.159ZM145.639 172.66V178.4H152.559V180.76H149.079V184.92H151.539C153.019 184.92 154.119 184.68 154.699 184.16V169.94H157.439V188.3H154.699V186.4C154.099 187 152.739 187.3 151.019 187.3H142.159V184.92H146.359V180.76H142.879V170.26H152.339V172.66H145.639ZM161.538 174.78C161.538 173.02 162.098 171.68 163.138 170.84C163.958 170.18 165.078 169.84 166.398 169.84C167.718 169.84 168.838 170.18 169.658 170.84C170.458 171.48 170.958 172.42 171.158 173.6H173.918V169.94H176.658V180.32H173.918V175.96H171.158C170.958 177.14 170.458 178.08 169.658 178.72C168.838 179.38 167.718 179.72 166.398 179.72C165.078 179.72 163.958 179.38 163.138 178.72C162.098 177.88 161.538 176.52 161.538 174.78ZM164.218 174.78C164.218 175.7 164.478 176.42 164.938 176.86C165.298 177.2 165.798 177.36 166.398 177.36C166.998 177.36 167.498 177.2 167.858 176.86C168.318 176.42 168.578 175.7 168.578 174.78C168.578 173.86 168.318 173.12 167.858 172.7C167.498 172.36 166.998 172.18 166.398 172.18C165.798 172.18 165.298 172.36 164.938 172.7C164.478 173.12 164.218 173.86 164.218 174.78ZM169.798 188.52C168.618 188.1 167.298 187.14 166.618 186.08C165.738 187.22 163.898 188.2 162.098 188.52V186.14C164.058 185.46 165.178 184.1 165.178 181.56V181.06H167.918V181.56C167.918 183.72 168.658 185.08 169.798 185.92C170.938 185.08 171.678 183.72 171.678 181.56V181.06H174.418V181.56C174.418 184.1 175.538 185.46 177.498 186.14V188.52C175.678 188.2 173.858 187.22 172.998 186.08C172.298 187.14 171.038 188.08 169.798 188.52ZM188.617 174.12C186.977 175.66 183.977 176.88 180.877 177.06V174.72C184.137 174.34 187.237 172.94 187.237 170.34V170.04H189.977V170.34C189.977 172.94 192.977 174.3 196.357 174.72V177.06C193.217 176.86 190.357 175.68 188.617 174.12ZM180.377 177.74H196.897V180.08H180.377V177.74ZM184.277 181.04V182.54H192.997V181.04H195.737V188.5H181.537V181.04H184.277ZM192.997 184.86H184.277V186.18H192.997V184.86ZM208.616 187.08H200.256V170.16H202.976V184.7H209.136C210.616 184.7 211.716 184.46 212.296 183.96V169.94H215.036V188.3H212.296V186.18C211.696 186.78 210.336 187.08 208.616 187.08ZM227.356 187.08H219.356V170.26H228.376V172.64H222.076V184.7H227.896C229.376 184.7 230.456 184.46 231.036 183.96V169.94H233.776V177.22H236.536V179.58H233.776V188.3H231.036V186.18C230.436 186.78 229.096 187.08 227.356 187.08Z" fill="#A3A3A3"/>
<circle cx="84.5" cy="67.5" r="44.5" fill="#FADE44"/>
<path d="M109.895 115.514L94.7646 120.69L61.4246 108.114L65.3076 98.7941L109.895 115.514ZM67.1031 94.481L70.984 85.1654L131.867 107.996L116.847 113.135L67.1031 94.481ZM87.8268 123.064L72.9016 128.17L55.7461 121.737L59.627 112.427L87.8268 123.064ZM140.773 104.951L138.822 105.619L72.7822 80.8539L76.6631 71.5394L134.211 93.1198L143.408 102.317L140.773 104.951ZM126.233 85.1411L78.4601 67.2271L82.341 57.9116L109 67.9088L126.233 85.1411ZM88.3497 47.2578L101.022 59.93L84.1386 53.5982L85.659 49.9497L88.3497 47.2578ZM51 133.13L53.9504 126.05L65.9484 130.55L52.9459 134.998H51.0003L51 133.13Z" fill="#1E2329"/>
<path d="M108.66 19.1145L102.582 16.5092L102.581 16.5103C98.8242 14.8981 95.5561 12.3292 93.102 9.06006L91.6982 7.18737L94.7913 5.125C98.0314 9.16011 102.362 12.1801 107.269 13.8246L110.049 14.751C114.044 16.0829 117.114 19.3154 118.238 23.3735C119.362 27.4315 118.392 31.7833 115.652 34.9807L106.893 45.1999L103.323 41.6295L111.434 33.5187C113.512 31.4407 114.424 28.4664 113.868 25.5808C113.312 22.6953 111.361 20.2724 108.66 19.1145H108.66Z" fill="#1E2329"/>
<path d="M139.565 21.4719L134.35 25.6436L133.308 19.3867L139.565 21.4719Z" fill="#1E2329"/>
<path d="M118.131 6.54091L119.264 2.01172L128.601 4.34608L127.468 8.87527L118.131 6.54091Z" fill="#1E2329"/>
<path d="M140.743 4.66872L147.746 0L150.336 3.88411L143.333 8.55282L140.743 4.66872Z" fill="#1E2329"/>
<path d="M86.085 21.1836L90.6142 20.0508L92.9485 29.3882L88.4193 30.521L86.085 21.1836Z" fill="#1E2329"/>
<path d="M178.816 94.3069L176.944 92.9032C173.674 90.449 171.105 87.181 169.493 83.4241L166.888 77.3465L166.889 77.3455C165.731 74.6443 163.308 72.6933 160.423 72.137C157.537 71.5816 154.563 72.4934 152.485 74.5714L144.374 82.6822L140.804 79.1118L151.023 70.3528V70.3538C154.22 67.6132 158.572 66.6439 162.63 67.7673C166.688 68.8917 169.921 71.9619 171.253 75.9562L172.179 78.7366C173.823 83.6431 176.843 87.974 180.879 91.2141L178.816 94.3069Z" fill="#1E2329"/>
<path d="M167.358 53.9844L171.53 48.7695L173.615 55.0264L167.358 53.9844Z" fill="#1E2329"/>
<path d="M177.126 65.5351L181.655 64.4023L183.99 73.7398L179.46 74.8726L177.126 65.5351Z" fill="#1E2329"/>
<path d="M177.447 42.671L182.116 35.668L186 38.2576L181.331 45.2607L177.447 42.671Z" fill="#1E2329"/>
<path d="M155.481 97.5839L156.614 93.0547L165.952 95.389L164.819 99.9182L155.481 97.5839Z" fill="#1E2329"/>
<path d="M170.93 23.4764C167.995 24.1287 165.312 25.6231 163.211 27.7761C161.111 29.9291 159.683 32.6471 159.103 35.5982L159.038 35.9348C158.322 39.6645 156.416 43.0609 153.607 45.6161C150.799 48.1714 147.237 49.747 143.457 50.1088L143.182 50.1359C137.208 50.7111 131.705 53.6249 127.872 58.2426C126.18 60.2769 124.433 62.3746 123.209 63.844L119.542 60.1768L127.433 50.9645C130.063 47.8861 133.769 45.9247 137.795 45.4829L138.06 45.4537C142.499 44.965 146.675 43.0996 150.002 40.1191C153.329 37.1386 155.64 33.1921 156.612 28.8328C157.035 26.9195 157.973 25.1584 159.325 23.741C160.677 22.3226 162.392 21.3024 164.283 20.7898L180.039 16.4922L181.214 21.1911L170.93 23.4764Z" fill="#1E2329"/>
</svg>
