<svg width="85" height="91" viewBox="0 0 85 91" fill="none" xmlns="http://www.w3.org/2000/svg">
<ellipse cx="32.5" cy="54" rx="32.5" ry="32" fill="#FADE44"/>
<path d="M12.9438 90.4997H24.4615L25.4477 89.8509C25.791 89.6398 26.0527 89.2274 26.0523 88.7615H26.5523V88.7611V52.0474C26.5523 51.5993 26.4044 51.1855 26.1069 50.8814C25.8085 50.5763 25.3983 50.4214 24.9508 50.4214H12.9433C12.4958 50.4214 12.0857 50.5763 11.7872 50.8814C11.4898 51.1855 11.3418 51.5993 11.3418 52.0474V52.0474L11.3423 88.8737C11.3423 89.3218 11.4903 89.7356 11.7878 90.0397C12.0862 90.3448 12.4964 90.4997 12.9438 90.4997ZM23.3494 53.6737V87.2475H14.5454V53.6737H23.3494Z" fill="#1E2329" stroke="black"/>
<path d="M25.3904 86.9477H32.6353C33.0859 86.9477 33.4989 86.7925 33.7997 86.4866C34.0998 86.1815 34.2497 85.7657 34.2497 85.3149V56.1989C34.2497 55.7478 34.0999 55.332 33.7997 55.0269C33.4988 54.7211 33.0857 54.5661 32.6353 54.5661H25.3904C24.94 54.5661 24.5269 54.7211 24.226 55.0269C23.9258 55.332 23.776 55.7478 23.776 56.1989V85.3149C23.776 85.7659 23.9258 86.1817 24.226 86.4869C24.5269 86.7927 24.94 86.9477 25.3904 86.9477ZM31.0209 57.8313V83.6815H27.0054V57.8313H31.0209Z" fill="#1E2329" stroke="black"/>
<path d="M80.3859 82.257C80.4899 80.6278 80.0119 78.9955 79.0303 77.7105C81.0044 76.741 82.5162 74.8372 82.7372 72.5132L82.7379 72.5061L82.7384 72.4989C82.8586 70.6844 82.2565 68.8644 81.0405 67.5235L81.0325 67.5147L81.024 67.5062L81.0204 67.5026C82.6385 66.4009 83.7493 64.7296 83.9693 62.7464L83.9706 62.7354L83.9713 62.7243C84.0908 60.922 83.4975 59.1144 82.2979 57.7761C82.1472 57.5554 81.9586 57.3383 81.7528 57.1454L82.257 56.6399L82.2654 56.6316L82.2733 56.6228C83.4899 55.2817 84.0921 53.4612 83.9713 51.6471L83.971 51.6436C83.7255 48.3169 80.6751 45.7874 77.308 45.7874H56.6839L57.1638 44.184L57.1658 44.1772L57.1677 44.1704C57.9624 41.2119 58.4177 38.1348 58.4177 35.0527V30.7836C58.4177 28.2961 57.4713 25.9207 55.6938 24.1391C53.9164 22.3574 51.5459 21.4082 49.0632 21.4082C47.105 21.4082 45.5372 22.9813 45.5372 24.9413C45.5372 24.9414 45.5372 24.9414 45.5372 24.9414L45.5356 34.2665V34.2666C45.5356 35.2803 45.2345 36.3102 44.7181 37.2522L31.1774 55.2002L31.1774 55.2002L31.176 55.202C30.9109 55.5569 30.8436 56.0079 30.8996 56.4008C30.9557 56.7936 31.1463 57.2079 31.5005 57.4741L31.5007 57.4743C31.8551 57.7403 32.306 57.8079 32.6987 57.7517C33.0912 57.6954 33.5047 57.5041 33.7702 57.1496C33.7703 57.1494 33.7705 57.1492 33.7706 57.149L47.2435 39.2909C47.2542 39.2847 47.2647 39.2781 47.2751 39.2712C47.3787 39.2019 47.4415 39.1133 47.478 39.04C47.4952 39.0056 47.5076 38.9726 47.5167 38.9427C48.3188 37.5378 48.7775 35.9057 48.7775 34.2667V24.8295C48.7775 24.655 48.8911 24.5429 49.0622 24.5429C50.7297 24.5429 52.2814 25.1687 53.4159 26.306L53.4236 26.3137L53.4316 26.321C54.6651 27.4544 55.2875 29.0022 55.2875 30.6717V34.9408C55.2875 37.7093 54.9564 40.472 54.1852 43.2326L54.1843 43.2359L53.179 46.9316C53.0043 47.4777 53.2095 47.9769 53.4665 48.3627C53.8088 48.8766 54.3277 49.0347 54.7794 49.0347C54.7794 49.0347 54.7795 49.0347 54.7795 49.0347L77.5328 49.0363C79.3003 49.0363 80.7491 50.3058 80.9557 51.9366C80.9499 52.9388 80.6502 53.8134 80.0796 54.4882C79.3788 55.1842 78.4989 55.5635 77.6449 55.5635C77.1947 55.5635 76.7809 55.7161 76.4784 56.0193C76.176 56.3223 76.0242 56.7366 76.0242 57.1869C76.0242 57.6372 76.176 58.0514 76.4784 58.3545C76.7809 58.6577 77.1947 58.8103 77.6449 58.8103C78.6314 58.8103 79.4969 59.204 80.0672 59.871L80.0797 59.8856L80.0933 59.8992C80.7651 60.5727 81.0565 61.4333 80.9582 62.4172L80.9572 62.4274L80.9566 62.4376C80.8628 64.0349 79.3368 65.3375 77.5328 65.3375H76.5243C76.0741 65.3375 75.6602 65.4901 75.3577 65.7932C75.0554 66.0963 74.9036 66.5106 74.9036 66.9608C74.9036 67.4111 75.0554 67.8254 75.3577 68.1285C75.6602 68.4316 76.0741 68.5842 76.5243 68.5842C77.5108 68.5842 78.3762 68.9779 78.9466 69.6449L78.959 69.6595L78.9726 69.6731C79.6445 70.3466 79.9358 71.2073 79.8376 72.1911L79.8366 72.2013L79.836 72.2115C79.7422 73.8088 78.2162 75.1114 76.4122 75.1114H74.1707C73.7205 75.1114 73.3066 75.264 73.0042 75.5672C72.7018 75.8702 72.55 76.2845 72.55 76.7348C72.55 77.1851 72.7018 77.5993 73.0042 77.9024C73.3066 78.2056 73.7205 78.3581 74.1707 78.3581C75.1572 78.3581 76.0227 78.7519 76.593 79.4189L76.6055 79.4335L76.619 79.4471C77.2909 80.1206 77.5823 80.9812 77.484 81.9651L77.483 81.9753L77.4824 81.9855C77.3886 83.5828 75.8626 84.8854 74.0586 84.8854H43.9082C41.6748 84.8854 39.7498 83.3608 39.2406 81.2331C39.0751 80.4264 38.41 79.9417 37.6315 79.9417H32.8122C32.362 79.9417 31.9481 80.0943 31.6457 80.3974C31.3433 80.7005 31.1915 81.1148 31.1915 81.5651C31.1915 82.0153 31.3433 82.4296 31.6457 82.7327C31.9481 83.0358 32.362 83.1884 32.8122 83.1884H36.3993C37.6677 86.1198 40.5578 88.1316 43.7965 88.1316H73.9457L73.9458 88.1319C77.2964 88.1319 80.3763 85.6121 80.3859 82.257Z" fill="#1E2329" stroke="black"/>
<rect x="48" width="2" height="15" fill="#1E2329"/>
<rect x="27.8809" y="7.42969" width="2.36842" height="12.3291" transform="rotate(-30 27.8809 7.42969)" fill="#1E2329"/>
<rect width="2.36842" height="12.5267" transform="matrix(-0.866025 -0.5 -0.5 0.866025 70.4844 7.25781)" fill="#1E2329"/>
</svg>
