<svg width="73" height="99" viewBox="0 0 73 99" fill="none" xmlns="http://www.w3.org/2000/svg">
<path d="M68.3645 44.6107C68.3645 63.4891 53.0606 78.793 34.1823 78.793C15.3039 78.793 0 63.4891 0 44.6107C0 25.7324 15.3039 10.4285 34.1823 10.4285C53.0606 10.4285 68.3645 25.7324 68.3645 44.6107Z" fill="#FADE44"/>
<path d="M46.7948 94.6289H43.8834C43.886 95.791 44.1939 96.9043 44.7401 97.7231C45.2862 98.5421 46.0253 99.0003 46.7949 98.9964H49.7063C50.4764 99.0003 51.2155 98.5421 51.7618 97.7231C52.3072 96.9042 52.6158 95.7909 52.6184 94.6289H46.7948Z" fill="black"/>
<path d="M68.6325 68.0208C68.6366 66.9111 68.3249 65.8229 67.733 64.8783C67.1411 63.933 66.2922 63.1688 65.2812 62.6723C66.0372 61.6465 66.4425 60.4127 66.4398 59.1474C66.4548 57.5896 65.839 56.0887 64.7283 54.9758C63.6169 53.8621 62.1015 53.2266 60.5145 53.2086H45.0032C44.1577 53.2086 43.4721 53.8809 43.4721 54.7114C43.4721 55.5413 44.1577 56.2143 45.0032 56.2143H60.5145C61.5466 56.2646 62.479 56.8349 62.9806 57.7218C63.4823 58.6087 63.4823 59.6868 62.9806 60.5737C62.4789 61.4606 61.5466 62.0302 60.5145 62.0812H52.4759C51.6304 62.0812 50.9449 62.7541 50.9449 63.584C50.9449 64.414 51.6304 65.0869 52.4759 65.0869H62.7066C63.7387 65.1379 64.6716 65.7075 65.1734 66.5944C65.6751 67.4813 65.6751 68.5601 65.1734 69.4463C64.6717 70.3333 63.7387 70.9035 62.7066 70.9545H53.2066C52.3611 70.9545 51.6756 71.6274 51.6756 72.4573C51.6756 73.2872 52.3611 73.9602 53.2066 73.9602H61.2452C62.2773 74.0105 63.2097 74.5808 63.7113 75.4677C64.213 76.3546 64.213 77.4327 63.7113 78.3196C63.2096 79.2066 62.2773 79.7768 61.2452 79.8271H52.4759C51.6304 79.8271 50.9449 80.5001 50.9449 81.33C50.9449 82.1599 51.6304 82.8328 52.4759 82.8328H58.3219C59.3539 82.8838 60.2868 83.4534 60.7887 84.3403C61.2911 85.2272 61.2911 86.306 60.7887 87.1929C60.287 88.0799 59.354 88.6501 58.3219 88.7004H29.456C26.7159 88.6481 24.1089 87.5317 22.206 85.5955C20.3032 83.6593 19.2601 81.0621 19.3053 78.3718V66.5417C19.3135 64.7035 19.8111 62.8994 20.7488 61.3079C22.2683 58.6733 24.8867 56.823 27.9146 56.2447C28.4403 56.2092 28.9276 55.9616 29.2605 55.5611C29.2693 55.549 29.281 55.5403 29.2892 55.5282C30.3315 53.9596 31.371 52.387 32.5105 50.8842C33.343 49.6296 34.5855 48.6916 36.0347 48.2241C36.7968 48.0403 37.5978 48.0926 38.3277 48.373C39.0584 48.6535 39.6824 49.1493 40.1151 49.792V45.8773C40.1138 45.6934 39.014 45.4224 38.8418 45.3754C37.3251 44.9863 35.7237 45.0628 34.2527 45.5941C32.7816 46.1255 31.5118 47.0862 30.6144 48.3468C29.7169 49.4303 27.8456 52.1877 27.0603 53.3571C23.9859 53.9972 21.2287 55.6584 19.2548 58.0595C17.2815 60.4613 16.2105 63.4563 16.2228 66.5418V78.3719C16.2228 81.0354 17.0286 83.6385 18.5377 85.8518C20.0469 88.0645 22.1917 89.788 24.7009 90.8024C27.4869 91.8859 30.484 91.7061 33.4189 91.7061H58.3216C59.9093 91.688 61.4246 91.0526 62.5353 89.9389C63.6467 88.8259 64.2625 87.3251 64.2482 85.7666C64.2502 84.5999 63.9058 83.4581 63.2557 82.4805C65.0841 81.7894 66.4641 80.28 66.9665 78.4208C67.4682 76.5617 67.0321 74.5792 65.7922 73.0898C67.5653 71.9929 68.6388 70.0779 68.6325 68.0208Z" fill="black"/>
<path d="M49.5772 0.741743C49.2953 0.281143 48.7925 0 48.2507 0C47.7089 0 47.2061 0.281143 46.9242 0.741743L23.7225 38.9547C23.4352 39.4263 23.4283 40.0158 23.7027 40.4949C23.9791 40.9746 24.4928 41.2707 25.049 41.27H43.2237V49.4982H52.5042V41.27H71.4532C72.0088 41.2707 72.5225 40.9746 72.7989 40.4949C73.074 40.0158 73.0664 39.4263 72.7791 38.9547L49.5772 0.741743ZM48.2507 35.1553C47.6307 35.1512 47.0731 34.7759 46.8392 34.2047C46.6046 33.6329 46.7383 32.9771 47.1787 32.5425C47.619 32.1071 48.2788 31.9781 48.8515 32.2156C49.4242 32.4531 49.7973 33.0092 49.7973 33.6268C49.7946 34.4736 49.1019 35.158 48.2507 35.1553H48.2507ZM49.7973 27.5127C49.7919 28.3581 49.1005 29.0405 48.2507 29.0405C47.4009 29.0405 46.7102 28.3581 46.704 27.5127V13.756C46.7102 12.9105 47.4009 12.2282 48.2507 12.2282C49.1005 12.2282 49.7918 12.9105 49.7973 13.756V27.5127Z" fill="black"/>
</svg>
