<svg width="164" height="39" viewBox="0 0 164 39" fill="none" xmlns="http://www.w3.org/2000/svg">
<path d="M0 12.4182C0 8.32123 3.32123 5 7.41818 5H26.5818C30.6788 5 34 8.32123 34 12.4182V31.5818C34 35.6788 30.6788 39 26.5818 39H7.41818C3.32123 39 0 35.6788 0 31.5818V12.4182Z" fill="#1E2329"/>
<path d="M55.04 17.36C53.9093 17.36 52.6293 17.5733 51.2 18V25.68H56C56.8533 25.68 57.28 25.2533 57.28 24.4V18.48C57.28 18.16 57.1733 17.8933 56.96 17.68C56.7467 17.4667 56.48 17.36 56.16 17.36H55.04ZM51.2 30V35.44H45.6V13.04H50.56L50.88 14.64C51.8827 13.9787 52.9067 13.4987 53.952 13.2C55.0187 12.88 55.9147 12.72 56.64 12.72H58.08C59.5307 12.72 60.6933 13.1573 61.568 14.032C62.4427 14.9067 62.88 16.0693 62.88 17.52V24.88C62.88 26.48 62.4213 27.7387 61.504 28.656C60.608 29.552 59.36 30 57.76 30H51.2ZM72.7963 13.68V30H67.1963V18H64.7963V13.68H72.7963ZM67.1963 7.28H72.7963V11.76H67.1963V7.28ZM91.0463 29.68C87.0569 30.1067 83.5369 30.32 80.4863 30.32C79.0356 30.32 77.8729 29.8827 76.9983 29.008C76.1236 28.1333 75.6863 26.9707 75.6863 25.52V18.16C75.6863 16.56 76.1343 15.312 77.0303 14.416C77.9476 13.4987 79.2063 13.04 80.8063 13.04H91.0463V17.36H82.5663C81.7129 17.36 81.2863 17.7867 81.2863 18.64V24.88C81.2863 25.2 81.3929 25.4667 81.6063 25.68C81.8196 25.8933 82.0863 26 82.4062 26C84.3263 26 87.2063 25.84 91.0463 25.52V29.68ZM99.2 23.28V30H93.6V7.6H99.2V18.96H101.76L105.28 13.04H111.2L106.4 21.2L111.2 30H105.28L101.6 23.28H99.2ZM122.548 17.68C121.204 17.68 119.817 18 118.388 18.64V30H112.788V13.04H117.748L118.068 15.12C119.902 13.52 121.822 12.72 123.828 12.72H125.268V17.68H122.548ZM132.945 25.84C134.076 25.84 135.356 25.6267 136.785 25.2V23.28H132.145C131.825 23.28 131.558 23.3867 131.345 23.6C131.132 23.8133 131.025 24.08 131.025 24.4V24.72C131.025 25.04 131.132 25.3067 131.345 25.52C131.558 25.7333 131.825 25.84 132.145 25.84H132.945ZM127.025 13.36C130.929 12.9333 134.449 12.72 137.585 12.72C139.036 12.72 140.198 13.1573 141.073 14.032C141.948 14.9067 142.385 16.0693 142.385 17.52V30H137.425L137.105 28.4C136.102 29.0613 135.068 29.552 134.001 29.872C132.956 30.1707 132.07 30.32 131.345 30.32H130.225C128.774 30.32 127.612 29.8827 126.737 29.008C125.862 28.1333 125.425 26.9707 125.425 25.52V24.08C125.425 22.6293 125.862 21.4667 126.737 20.592C127.612 19.7173 128.774 19.28 130.225 19.28H136.785V18C136.785 17.68 136.678 17.4133 136.465 17.2C136.252 16.9867 135.985 16.88 135.665 16.88C134.278 16.88 132.742 16.944 131.057 17.072C129.393 17.2 128.049 17.296 127.025 17.36V13.36ZM154.696 17.36C153.566 17.36 152.286 17.5733 150.856 18V25.68H155.656C156.51 25.68 156.936 25.2533 156.936 24.4V18.48C156.936 18.16 156.83 17.8933 156.616 17.68C156.403 17.4667 156.136 17.36 155.816 17.36H154.696ZM150.856 30V35.44H145.256V13.04H150.216L150.536 14.64C151.539 13.9787 152.563 13.4987 153.608 13.2C154.675 12.88 155.571 12.72 156.296 12.72H157.736C159.187 12.72 160.35 13.1573 161.224 14.032C162.099 14.9067 162.536 16.0693 162.536 17.52V24.88C162.536 26.48 162.078 27.7387 161.16 28.656C160.264 29.552 159.016 30 157.416 30H150.856Z" fill="#1E2329"/>
<path d="M16.1829 25.0097L15.0951 31.9402L10.7139 31.9402L13.2985 11.7885L17.3271 11.7885L17.4071 13.0744C18.2619 12.6637 19.1141 12.3972 19.9637 12.2748C20.8323 12.138 21.1587 12.1854 22.1178 12.1854L23.2443 12.3387C24.6678 12.5661 25.2423 12.959 25.8335 13.7364C26.4246 14.5138 26.643 15.47 26.4886 16.6049L25.7051 22.3629C25.3697 23.9357 24.4217 24.1992 23.8257 24.4972C23.2643 24.7779 21.179 25.0097 19.4946 25.0097L16.1829 25.0097Z" fill="white"/>
<path d="M8.26145 22.3811C8.32571 22.0621 8.57534 21.8359 8.86317 21.8359H17.1729C17.551 21.8359 17.8402 22.2188 17.7832 22.6437C17.7371 22.9864 17.4779 23.2396 17.1729 23.2396H8.86317C8.46661 23.2396 8.17291 22.8205 8.26145 22.3811Z" fill="#1E2329"/>
<path d="M6.84225 21.8359H11.9753L11.782 23.2396H6.56152L6.84225 21.8359Z" fill="#7DBBA5"/>
<path d="M7.42785 19.7858C7.49693 19.4946 7.6985 19.2969 7.92626 19.2969H18.1087C18.4413 19.2969 18.6894 19.7079 18.6204 20.1444C18.5691 20.4686 18.3558 20.7005 18.1087 20.7005H7.92626C7.57223 20.7005 7.32046 20.2385 7.42785 19.7858Z" fill="#1E2329"/>
<path d="M6.28073 19.2969H12.3164L12.1366 20.7005H6L6.28073 19.2969Z" fill="#8AD3F4"/>
<path d="M9.05927 17.2631C9.12225 16.9696 9.30978 16.7695 9.52202 16.7695H18.7085C19.0156 16.7695 19.2453 17.1781 19.183 17.6137C19.1364 17.9395 18.9382 18.1732 18.7085 18.1732H9.52202C9.19543 18.1732 8.96236 17.7148 9.05927 17.2631Z" fill="#1E2329"/>
<path d="M7.12204 16.7695H12.6569L12.4754 18.1732H6.84131L7.12204 16.7695Z" fill="#A6A7CC"/>
<path d="M10.5049 14.8214C10.567 14.4937 10.8388 14.2578 11.1543 14.2578H18.8125C19.2133 14.2578 19.5222 14.6319 19.469 15.0528C19.425 15.4013 19.1444 15.6615 18.8125 15.6615H11.1543C10.7361 15.6615 10.4225 15.2559 10.5049 14.8214Z" fill="#1E2329"/>
<path d="M6.84225 14.2578H12.9872L12.8138 15.6615H6.56152L6.84225 14.2578Z" fill="#B9AED8"/>
</svg>
