<svg width="126" height="45" viewBox="0 0 126 45" fill="none" xmlns="http://www.w3.org/2000/svg">
<path d="M4.5957 33L8.55201 9H16.4879C18.0264 9 19.353 9.25761 20.4677 9.77283C21.598 10.2881 22.4693 11.0287 23.0816 11.9947C23.6938 12.9447 24 14.0717 24 15.3759C24 16.68 23.6938 17.807 23.0816 18.757C22.4693 19.7069 21.598 20.4476 20.4677 20.9789C19.353 21.4941 18.0264 21.7517 16.4879 21.7517H8.84637L12.673 19.566L10.6125 30.5511C10.3462 31.9709 9.1024 33 7.65279 33H4.5957ZM12.673 19.566L11.6369 17.3562H16.1347C16.9039 17.3562 17.4691 17.1791 17.8302 16.8249C18.207 16.4707 18.3954 15.9877 18.3954 15.3759C18.3954 14.764 18.207 14.281 17.8302 13.9268C17.4691 13.5726 16.9039 13.3955 16.1347 13.3955H13.1389C12.5732 13.3955 12.2829 12.7203 12.6733 12.3123C13.1098 11.8561 13.8758 12.2359 13.7737 12.858L12.673 19.566Z" fill="#1E1E24"/>
<path d="M12.2549 13H19.4038V18H12.2549V13Z" fill="#1E1E24"/>
<path d="M0.0233233 19.5571C0.102871 19.2286 0.373528 19 0.682868 19H11.5726C11.9973 19 12.3188 19.4216 12.2446 19.881C12.1868 20.2391 11.9036 20.5 11.5726 20.5H0.682869C0.234597 20.5 -0.0919512 20.0332 0.0233233 19.5571Z" fill="white"/>
<path d="M3.59202 17.3884C3.66422 17.1611 3.94467 17 4.26804 17H13.604C14.0287 17 14.3536 17.2728 14.2895 17.5755C14.2378 17.8196 13.9466 18 13.604 18H4.26804C3.82251 18 3.49255 17.7015 3.59202 17.3884Z" fill="white"/>
<path d="M2.58329 15.0225C2.66497 14.7113 2.90329 14.5 3.17258 14.5H15.2116C15.6049 14.5 15.8982 14.9392 15.8166 15.4057C15.756 15.7522 15.5037 16 15.2117 16H3.17258C2.75399 16 2.45633 15.5062 2.58329 15.0225Z" fill="white"/>
<path d="M4.11282 12.8516C4.19198 12.6425 4.42771 12.5 4.69448 12.5H16.2416C16.6277 12.5 16.9164 12.7911 16.838 13.1014C16.7795 13.3335 16.5304 13.5 16.2416 13.5H4.69448C4.28397 13.5 3.991 13.1734 4.11282 12.8516Z" fill="white"/>
<path d="M6.65067 10.6023C6.70718 10.252 6.95433 10 7.24132 10H14.2063C14.5708 10 14.8518 10.3998 14.8035 10.8495C14.7634 11.222 14.5082 11.5 14.2063 11.5H7.24132C6.86095 11.5 6.57578 11.0666 6.65067 10.6023Z" fill="white"/>
<path d="M0 19H6.6383L6.44123 20.5H5.92153e-05L0 19Z" fill="#E0C7DC"/>
<path d="M1.53317 17H7.14827L6.91722 18H1.53125L1.53317 17Z" fill="#7DBBA5"/>
<path d="M1.02224 14.5H7.65978L7.43929 16H1.02148L1.02224 14.5Z" fill="#8AD3F4"/>
<path d="M2.04299 12.5H7.65999L7.46379 13.5H2.04297L2.04299 12.5Z" fill="#E0B546"/>
<path d="M1.53137 10H8.16955L7.96792 11.5H1.53125L1.53137 10Z" fill="#B9AED8"/>
<path d="M25.092 33L28.032 18.16H30.72L27.78 33H25.092ZM30.16 15.304C29.656 15.304 29.2453 15.1453 28.928 14.828C28.6293 14.5107 28.48 14.128 28.48 13.68C28.48 13.1573 28.6573 12.7187 29.012 12.364C29.3667 11.9907 29.8333 11.804 30.412 11.804C30.8973 11.804 31.2987 11.9627 31.616 12.28C31.952 12.5787 32.12 12.9427 32.12 13.372C32.12 13.9507 31.9427 14.4173 31.588 14.772C31.2333 15.1267 30.7573 15.304 30.16 15.304ZM39.9403 33.168C38.503 33.168 37.2523 32.9067 36.1883 32.384C35.143 31.8427 34.331 31.096 33.7523 30.144C33.1736 29.1733 32.8843 28.044 32.8843 26.756C32.8843 25.076 33.2576 23.5827 34.0043 22.276C34.751 20.9507 35.787 19.9147 37.1123 19.168C38.4376 18.4027 39.9403 18.02 41.6203 18.02C43.0576 18.02 44.2896 18.2907 45.3163 18.832C46.343 19.3547 47.1456 20.1573 47.7243 21.24L45.4563 22.5C45.083 21.772 44.551 21.24 43.8603 20.904C43.1883 20.5493 42.3763 20.372 41.4243 20.372C40.3043 20.372 39.3056 20.6427 38.4283 21.184C37.551 21.7067 36.8603 22.444 36.3563 23.396C35.8523 24.3293 35.6003 25.412 35.6003 26.644C35.6003 27.932 35.983 28.9493 36.7483 29.696C37.5323 30.4427 38.6336 30.816 40.0523 30.816C40.9296 30.816 41.751 30.6387 42.5163 30.284C43.3003 29.9293 43.9536 29.4067 44.4763 28.716L46.4363 30.116C45.7643 31.068 44.8496 31.8147 43.6923 32.356C42.535 32.8973 41.2843 33.168 39.9403 33.168ZM51.685 29.248L52.245 25.972L62.129 18.16H65.909L57.621 24.684L56.193 25.748L51.685 29.248ZM48.717 33L52.861 12.224H55.549L51.405 33H48.717ZM60.169 33L55.745 25.776L57.565 23.732L63.277 33H60.169ZM66.0615 33L69.9815 13.4H77.2895C79.5855 13.4 81.3588 13.904 82.6095 14.912C83.8788 15.92 84.5135 17.3293 84.5135 19.14C84.5135 20.7827 84.1401 22.192 83.3935 23.368C82.6655 24.544 81.6108 25.4493 80.2295 26.084C78.8481 26.7 77.2055 27.008 75.3015 27.008H68.8895L70.3175 25.72L68.8895 33H66.0615ZM79.2495 33L75.2175 25.888H78.2135L82.2175 33H79.2495ZM70.2615 26.028L69.3095 24.628H75.3855C77.3828 24.628 78.9321 24.1893 80.0335 23.312C81.1535 22.416 81.7135 21.1093 81.7135 19.392C81.7135 18.216 81.3121 17.3293 80.5095 16.732C79.7068 16.1347 78.5495 15.836 77.0375 15.836H71.1575L72.5855 14.408L70.2615 26.028ZM83.4372 33L96.2612 13.4H99.0332L103.989 33H101.217L96.8492 14.912H97.9692L86.4612 33H83.4372ZM88.1972 28.1L89.4292 25.86H100.433L100.825 28.1H88.1972ZM106.913 33L110.833 13.4H118.113C120.409 13.4 122.182 13.904 123.433 14.912C124.684 15.92 125.309 17.3293 125.309 19.14C125.309 20.8013 124.936 22.2293 124.189 23.424C123.461 24.6 122.406 25.5053 121.025 26.14C119.644 26.756 118.01 27.064 116.125 27.064H109.685L111.169 25.72L109.713 33H106.913ZM111.113 26.028L110.133 24.628H116.181C118.178 24.628 119.728 24.1893 120.829 23.312C121.949 22.416 122.509 21.1093 122.509 19.392C122.509 18.216 122.108 17.3293 121.305 16.732C120.502 16.1347 119.354 15.836 117.861 15.836H111.953L113.437 14.408L111.113 26.028Z" fill="#1E1E24"/>
</svg>
