<svg width="177" height="90" viewBox="0 0 177 90" fill="none" xmlns="http://www.w3.org/2000/svg">
<g filter="url(#filter0_d_263_976)">
<path d="M13 27.4182C13 23.3212 16.3212 20 20.4182 20H39.5818C43.6788 20 47 23.3212 47 27.4182V46.5818C47 50.6788 43.6788 54 39.5818 54H20.4182C16.3212 54 13 50.6788 13 46.5818V27.4182Z" fill="white"/>
</g>
<path d="M68.04 32.36C66.9093 32.36 65.6293 32.5733 64.2 33V40.68H69C69.8533 40.68 70.28 40.2533 70.28 39.4V33.48C70.28 33.16 70.1733 32.8933 69.96 32.68C69.7467 32.4667 69.48 32.36 69.16 32.36H68.04ZM64.2 45V50.44H58.6V28.04H63.56L63.88 29.64C64.8827 28.9787 65.9067 28.4987 66.952 28.2C68.0187 27.88 68.9147 27.72 69.64 27.72H71.08C72.5307 27.72 73.6933 28.1573 74.568 29.032C75.4427 29.9067 75.88 31.0693 75.88 32.52V39.88C75.88 41.48 75.4213 42.7387 74.504 43.656C73.608 44.552 72.36 45 70.76 45H64.2ZM85.7963 28.68V45H80.1963V33H77.7963V28.68H85.7963ZM80.1963 22.28H85.7963V26.76H80.1963V22.28ZM104.046 44.68C100.057 45.1067 96.5369 45.32 93.4863 45.32C92.0356 45.32 90.8729 44.8827 89.9983 44.008C89.1236 43.1333 88.6863 41.9707 88.6863 40.52V33.16C88.6863 31.56 89.1343 30.312 90.0303 29.416C90.9476 28.4987 92.2063 28.04 93.8063 28.04H104.046V32.36H95.5663C94.7129 32.36 94.2863 32.7867 94.2863 33.64V39.88C94.2863 40.2 94.3929 40.4667 94.6063 40.68C94.8196 40.8933 95.0863 41 95.4062 41C97.3263 41 100.206 40.84 104.046 40.52V44.68ZM112.2 38.28V45H106.6V22.6H112.2V33.96H114.76L118.28 28.04H124.2L119.4 36.2L124.2 45H118.28L114.6 38.28H112.2ZM135.548 32.68C134.204 32.68 132.817 33 131.388 33.64V45H125.788V28.04H130.748L131.068 30.12C132.902 28.52 134.822 27.72 136.828 27.72H138.268V32.68H135.548ZM145.945 40.84C147.076 40.84 148.356 40.6267 149.785 40.2V38.28H145.145C144.825 38.28 144.558 38.3867 144.345 38.6C144.132 38.8133 144.025 39.08 144.025 39.4V39.72C144.025 40.04 144.132 40.3067 144.345 40.52C144.558 40.7333 144.825 40.84 145.145 40.84H145.945ZM140.025 28.36C143.929 27.9333 147.449 27.72 150.585 27.72C152.036 27.72 153.198 28.1573 154.073 29.032C154.948 29.9067 155.385 31.0693 155.385 32.52V45H150.425L150.105 43.4C149.102 44.0613 148.068 44.552 147.001 44.872C145.956 45.1707 145.07 45.32 144.345 45.32H143.225C141.774 45.32 140.612 44.8827 139.737 44.008C138.862 43.1333 138.425 41.9707 138.425 40.52V39.08C138.425 37.6293 138.862 36.4667 139.737 35.592C140.612 34.7173 141.774 34.28 143.225 34.28H149.785V33C149.785 32.68 149.678 32.4133 149.465 32.2C149.252 31.9867 148.985 31.88 148.665 31.88C147.278 31.88 145.742 31.944 144.057 32.072C142.393 32.2 141.049 32.296 140.025 32.36V28.36ZM167.696 32.36C166.566 32.36 165.286 32.5733 163.856 33V40.68H168.656C169.51 40.68 169.936 40.2533 169.936 39.4V33.48C169.936 33.16 169.83 32.8933 169.616 32.68C169.403 32.4667 169.136 32.36 168.816 32.36H167.696ZM163.856 45V50.44H158.256V28.04H163.216L163.536 29.64C164.539 28.9787 165.563 28.4987 166.608 28.2C167.675 27.88 168.571 27.72 169.296 27.72H170.736C172.187 27.72 173.35 28.1573 174.224 29.032C175.099 29.9067 175.536 31.0693 175.536 32.52V39.88C175.536 41.48 175.078 42.7387 174.16 43.656C173.264 44.552 172.016 45 170.416 45H163.856Z" fill="white"/>
<path d="M29.1834 40.0097L28.0955 46.9402L23.7144 46.9402L26.299 26.7885L30.3276 26.7885L30.4076 28.0744C31.2624 27.6637 32.1146 27.3972 32.9642 27.2748C33.8328 27.138 34.1592 27.1854 35.1183 27.1854L36.2448 27.3387C37.6683 27.5661 38.2428 27.959 38.834 28.7364C39.4251 29.5138 39.6435 30.47 39.4891 31.6049L38.7056 37.3629C38.3702 38.9357 37.4222 39.1992 36.8262 39.4972C36.2648 39.7779 34.1795 40.0097 32.4951 40.0097L29.1834 40.0097Z" fill="#1E2329"/>
<path d="M21.2619 37.3811C21.3262 37.0621 21.5758 36.8359 21.8637 36.8359H30.1734C30.5515 36.8359 30.8407 37.2188 30.7837 37.6437C30.7376 37.9864 30.4784 38.2396 30.1734 38.2396H21.8637C21.4671 38.2396 21.1734 37.8205 21.2619 37.3811Z" fill="white"/>
<path d="M19.8423 36.8359H24.9753L24.782 38.2396H19.5615L19.8423 36.8359Z" fill="#7DBBA5"/>
<path d="M20.4274 34.7858C20.4964 34.4946 20.698 34.2969 20.9258 34.2969H31.1082C31.4408 34.2969 31.6889 34.7079 31.6199 35.1444C31.5686 35.4686 31.3553 35.7005 31.1082 35.7005H20.9258C20.5717 35.7005 20.32 35.2385 20.4274 34.7858Z" fill="white"/>
<path d="M19.2807 34.2969H25.3164L25.1366 35.7005H19L19.2807 34.2969Z" fill="#8AD3F4"/>
<path d="M22.0602 32.2631C22.1232 31.9696 22.3108 31.7695 22.523 31.7695H31.7095C32.0166 31.7695 32.2463 32.1781 32.184 32.6137C32.1374 32.9395 31.9392 33.1732 31.7095 33.1732H22.523C22.1964 33.1732 21.9633 32.7148 22.0602 32.2631Z" fill="white"/>
<path d="M20.1225 31.7695H25.6574L25.4759 33.1732H19.8418L20.1225 31.7695Z" fill="#A6A7CC"/>
<path d="M23.5044 29.8214C23.5665 29.4937 23.8383 29.2578 24.1538 29.2578H31.812C32.2128 29.2578 32.5217 29.6319 32.4686 30.0528C32.4245 30.4013 32.1439 30.6615 31.812 30.6615H24.1538C23.7356 30.6615 23.4221 30.2559 23.5044 29.8214Z" fill="white"/>
<path d="M19.8423 29.2578H25.9872L25.8138 30.6615H19.5615L19.8423 29.2578Z" fill="#B9AED8"/>
<defs>
<filter id="filter0_d_263_976" x="0" y="0" width="90" height="90" filterUnits="userSpaceOnUse" color-interpolation-filters="sRGB">
<feFlood flood-opacity="0" result="BackgroundImageFix"/>
<feColorMatrix in="SourceAlpha" type="matrix" values="0 0 0 0 0 0 0 0 0 0 0 0 0 0 0 0 0 0 127 0" result="hardAlpha"/>
<feOffset dx="15" dy="8"/>
<feGaussianBlur stdDeviation="14"/>
<feComposite in2="hardAlpha" operator="out"/>
<feColorMatrix type="matrix" values="0 0 0 0 0 0 0 0 0 0 0 0 0 0 0 0 0 0 0.12 0"/>
<feBlend mode="normal" in2="BackgroundImageFix" result="effect1_dropShadow_263_976"/>
<feBlend mode="normal" in="SourceGraphic" in2="effect1_dropShadow_263_976" result="shape"/>
</filter>
</defs>
</svg>
