<svg width="128" height="45" viewBox="0 0 128 45" fill="none" xmlns="http://www.w3.org/2000/svg">
<path d="M27.092 33L30.032 18.16H32.72L29.78 33H27.092ZM32.16 15.304C31.656 15.304 31.2453 15.1453 30.928 14.828C30.6293 14.5107 30.48 14.128 30.48 13.68C30.48 13.1573 30.6573 12.7187 31.012 12.364C31.3667 11.9907 31.8333 11.804 32.412 11.804C32.8973 11.804 33.2987 11.9627 33.616 12.28C33.952 12.5787 34.12 12.9427 34.12 13.372C34.12 13.9507 33.9427 14.4173 33.588 14.772C33.2333 15.1267 32.7573 15.304 32.16 15.304ZM41.9403 33.168C40.503 33.168 39.2523 32.9067 38.1883 32.384C37.143 31.8427 36.331 31.096 35.7523 30.144C35.1736 29.1733 34.8843 28.044 34.8843 26.756C34.8843 25.076 35.2576 23.5827 36.0043 22.276C36.751 20.9507 37.787 19.9147 39.1123 19.168C40.4376 18.4027 41.9403 18.02 43.6203 18.02C45.0576 18.02 46.2896 18.2907 47.3163 18.832C48.343 19.3547 49.1456 20.1573 49.7243 21.24L47.4563 22.5C47.083 21.772 46.551 21.24 45.8603 20.904C45.1883 20.5493 44.3763 20.372 43.4243 20.372C42.3043 20.372 41.3056 20.6427 40.4283 21.184C39.551 21.7067 38.8603 22.444 38.3563 23.396C37.8523 24.3293 37.6003 25.412 37.6003 26.644C37.6003 27.932 37.983 28.9493 38.7483 29.696C39.5323 30.4427 40.6336 30.816 42.0523 30.816C42.9296 30.816 43.751 30.6387 44.5163 30.284C45.3003 29.9293 45.9536 29.4067 46.4763 28.716L48.4363 30.116C47.7643 31.068 46.8496 31.8147 45.6923 32.356C44.535 32.8973 43.2843 33.168 41.9403 33.168ZM53.685 29.248L54.245 25.972L64.129 18.16H67.909L59.621 24.684L58.193 25.748L53.685 29.248ZM50.717 33L54.861 12.224H57.549L53.405 33H50.717ZM62.169 33L57.745 25.776L59.565 23.732L65.277 33H62.169ZM68.0615 33L71.9815 13.4H79.2895C81.5855 13.4 83.3588 13.904 84.6095 14.912C85.8788 15.92 86.5135 17.3293 86.5135 19.14C86.5135 20.7827 86.1401 22.192 85.3935 23.368C84.6655 24.544 83.6108 25.4493 82.2295 26.084C80.8481 26.7 79.2055 27.008 77.3015 27.008H70.8895L72.3175 25.72L70.8895 33H68.0615ZM81.2495 33L77.2175 25.888H80.2135L84.2175 33H81.2495ZM72.2615 26.028L71.3095 24.628H77.3855C79.3828 24.628 80.9321 24.1893 82.0335 23.312C83.1535 22.416 83.7135 21.1093 83.7135 19.392C83.7135 18.216 83.3121 17.3293 82.5095 16.732C81.7068 16.1347 80.5495 15.836 79.0375 15.836H73.1575L74.5855 14.408L72.2615 26.028ZM85.4372 33L98.2612 13.4H101.033L105.989 33H103.217L98.8492 14.912H99.9692L88.4612 33H85.4372ZM90.1972 28.1L91.4292 25.86H102.433L102.825 28.1H90.1972ZM108.913 33L112.833 13.4H120.113C122.409 13.4 124.182 13.904 125.433 14.912C126.684 15.92 127.309 17.3293 127.309 19.14C127.309 20.8013 126.936 22.2293 126.189 23.424C125.461 24.6 124.406 25.5053 123.025 26.14C121.644 26.756 120.01 27.064 118.125 27.064H111.685L113.169 25.72L111.713 33H108.913ZM113.113 26.028L112.133 24.628H118.181C120.178 24.628 121.728 24.1893 122.829 23.312C123.949 22.416 124.509 21.1093 124.509 19.392C124.509 18.216 124.108 17.3293 123.305 16.732C122.502 16.1347 121.354 15.836 119.861 15.836H113.953L115.437 14.408L113.113 26.028Z" fill="white"/>
<path d="M4.72656 33L9.06383 7H17.7639C19.4506 7 20.9049 7.27908 22.1269 7.83723C23.366 8.39539 24.3212 9.19774 24.9925 10.2443C25.6637 11.2734 25.9993 12.4943 25.9993 13.9072C25.9993 15.32 25.6637 16.541 24.9925 17.5701C24.3212 18.5992 23.366 19.4015 22.1269 19.9771C20.9049 20.5353 19.4506 20.8143 17.7639 20.8143H9.38653L13.5817 18.4465L11.3228 30.347C11.0308 31.8851 9.66721 33 8.07801 33H4.72656ZM13.5817 18.4465L12.4458 16.0526H17.3767C18.22 16.0526 18.8396 15.8607 19.2354 15.477C19.6485 15.0932 19.855 14.57 19.855 13.9072C19.855 13.2444 19.6485 12.7211 19.2354 12.3374C18.8396 11.9536 18.22 11.7618 17.3767 11.7618H14.0924C13.4722 11.7618 13.154 11.0303 13.5819 10.5884V10.5884C14.0605 10.0941 14.9002 10.5056 14.7883 11.1795L13.5817 18.4465Z" fill="white"/>
<path d="M13.3936 10.9375H21.2723V16.4527H13.3936V10.9375Z" fill="white"/>
<path d="M0.0254903 18.6165C0.112428 18.2714 0.408233 18.0312 0.746312 18.0312H12.6478C13.1119 18.0312 13.4633 18.4741 13.3823 18.9568V18.9568C13.3191 19.3329 13.0095 19.607 12.6478 19.607H0.746312C0.256391 19.607 -0.100494 19.1166 0.0254903 18.6165V18.6165Z" fill="black"/>
<path d="M3.95907 16.2799C4.03864 15.9219 4.34773 15.668 4.70411 15.668H14.9931C15.4612 15.668 15.8194 16.0978 15.7487 16.5748V16.5748C15.6917 16.9595 15.3707 17.2437 14.9931 17.2437H4.70411C4.21309 17.2437 3.84945 16.7733 3.95907 16.2799V16.2799Z" fill="black"/>
<path d="M3.18296 13.0645C3.27021 12.7376 3.52479 12.5156 3.81243 12.5156H16.6723C17.0924 12.5156 17.4057 12.977 17.3185 13.4671V13.4671C17.2538 13.8311 16.9843 14.0914 16.6723 14.0914H3.81243C3.36531 14.0914 3.04734 13.5727 3.18296 13.0645V13.0645Z" fill="black"/>
<path d="M4.75848 10.7064C4.84642 10.3769 5.1083 10.1523 5.40466 10.1523H18.2325C18.6614 10.1523 18.982 10.611 18.895 11.1V11.1C18.83 11.4658 18.5533 11.7281 18.2325 11.7281H5.40466C4.94862 11.7281 4.62316 11.2135 4.75848 10.7064V10.7064Z" fill="black"/>
<path d="M7.10471 8.4218C7.1701 8.05382 7.4561 7.78906 7.78821 7.78906H15.8481C16.2699 7.78906 16.5951 8.20904 16.5391 8.6815V8.6815C16.4927 9.07273 16.1974 9.36482 15.8481 9.36482H7.78821C7.34804 9.36482 7.01804 8.90951 7.10471 8.4218V8.4218Z" fill="black"/>
<path d="M0 18.0312H7.09091L6.88041 19.607H6.32527e-05L0 18.0312Z" fill="#E0C7DC"/>
<path d="M2.36517 15.668H7.87843L7.65158 17.2437H2.36328L2.36517 15.668Z" fill="#7DBBA5"/>
<path d="M1.57689 12.5156H7.8792L7.66985 14.0914H1.57617L1.57689 12.5156Z" fill="#8AD3F4"/>
<path d="M2.3633 10.1523H8.66631L8.44615 11.7281H2.36328L2.3633 10.1523Z" fill="#E0B546"/>
<path d="M1.57631 7.78906H9.45496L9.21565 9.36482H1.57617L1.57631 7.78906Z" fill="#B9AED8"/>
</svg>
