<svg width="22" height="37" viewBox="0 0 22 37" fill="none" xmlns="http://www.w3.org/2000/svg">
<path d="M3.79078 30.51V31.19H11.9808V30.51H3.79078ZM7.53078 30.85V32.93H8.36078V30.85H7.53078ZM4.83078 33.9V34.58H11.0708V33.9H4.83078ZM4.83078 32.13V34.16H5.65078V32.13H4.83078ZM4.88078 26.02V29.64H10.9008V26.02H10.0708V27.17H5.70078V26.02H4.88078ZM5.70078 27.82H10.0708V28.97H5.70078V27.82ZM17.64 27.63V28.32H19.78V27.63H17.64ZM15.25 26.2V27.14C15.25 28.52 14.37 29.73 13.01 30.23L13.44 30.89C14.96 30.31 15.93 28.88 15.93 27.14V26.2H15.25ZM15.4 26.2V27.18C15.4 28.77 16.38 30.14 17.83 30.69L18.27 30.04C16.97 29.58 16.07 28.42 16.07 27.18V26.2H15.4ZM14.4 31.58V32.25H19.6V34.78H20.43V31.58H14.4ZM19.6 25.74V31.08H20.43V25.74H19.6Z" fill="#3B4046"/>
<circle cx="6.5" cy="6.5" r="6.5" fill="#FFF75A"/>
<path d="M8.1 15.075H9.6V8.2H8.1V15.075ZM12.25 15.075H13.75V4.925H12.25V15.075ZM16.4 15.075H17.9V11.375H16.4V15.075ZM4 19V1H22V19H4ZM5.5 17.5H20.5V2.5H5.5V17.5Z" fill="#3B4046"/>
</svg>
