<svg width="19" height="36" viewBox="0 0 19 36" fill="none" xmlns="http://www.w3.org/2000/svg">
<path d="M5.1 14.075H6.6V7.2H5.1V14.075ZM9.25 14.075H10.75V3.925H9.25V14.075ZM13.4 14.075H14.9V10.375H13.4V14.075ZM1 18V0H19V18H1ZM2.5 16.5H17.5V1.5H2.5V16.5Z" fill="#3B4046"/>
<path d="M0.790781 29.51V30.19H8.98078V29.51H0.790781ZM4.53078 29.85V31.93H5.36078V29.85H4.53078ZM1.83078 32.9V33.58H8.07078V32.9H1.83078ZM1.83078 31.13V33.16H2.65078V31.13H1.83078ZM1.88078 25.02V28.64H7.90078V25.02H7.07078V26.17H2.70078V25.02H1.88078ZM2.70078 26.82H7.07078V27.97H2.70078V26.82ZM14.64 26.63V27.32H16.78V26.63H14.64ZM12.25 25.2V26.14C12.25 27.52 11.37 28.73 10.01 29.23L10.44 29.89C11.96 29.31 12.93 27.88 12.93 26.14V25.2H12.25ZM12.4 25.2V26.18C12.4 27.77 13.38 29.14 14.83 29.69L15.27 29.04C13.97 28.58 13.07 27.42 13.07 26.18V25.2H12.4ZM11.4 30.58V31.25H16.6V33.78H17.43V30.58H11.4ZM16.6 24.74V30.08H17.43V24.74H16.6Z" fill="#3B4046"/>
</svg>
