<svg width="28" height="35" viewBox="0 0 28 35" fill="none" xmlns="http://www.w3.org/2000/svg">
<path d="M7.58117 23.74V32.78H8.38117V23.74H7.58117ZM6.15117 27.32V28H7.88117V27.32H6.15117ZM5.58117 23.93V32.33H6.37117V23.93H5.58117ZM1.02117 24.78V30.36H4.47117V24.78H1.02117ZM3.69117 25.44V29.7H1.80117V25.44H3.69117ZM16.5004 23.74V32.78H17.3304V23.74H16.5004ZM14.3904 27.36V28.05H16.8704V27.36H14.3904ZM13.6004 24.71V24.85C13.6004 27.21 12.5204 29.13 9.89039 30.42L10.3504 31.07C13.3504 29.57 14.4204 27.29 14.4204 24.71H13.6004ZM10.2804 24.71V25.39H14.0404V24.71H10.2804ZM21.4996 24.73V25.65C21.4996 26.94 20.5796 28.11 19.2196 28.59L19.6496 29.25C21.1696 28.7 22.1896 27.31 22.1896 25.65V24.73H21.4996ZM21.6596 24.73V25.65C21.6596 27.24 22.6996 28.56 24.1996 29.07L24.6296 28.42C23.2896 27.97 22.3496 26.87 22.3496 25.65V24.73H21.6596ZM19.4396 24.49V25.16H24.3896V24.49H19.4396ZM25.6696 23.75V30.36H26.5096V23.75H25.6696ZM20.6996 31.9V32.58H26.7796V31.9H20.6996ZM20.6996 29.74V32.2H21.5196V29.74H20.6996Z" fill="#3B4046"/>
<path d="M10.9175 8.325H19.805V6.975H10.9175V8.325ZM10.9175 10.35H15.98V9H10.9175V10.35ZM10.9175 6.3H19.805V4.95H10.9175V6.3ZM7.7 15.3V0H23V15.3H7.7ZM9.05 13.95H21.65V1.35H9.05V13.95ZM5 18V2.7H6.35V16.65H20.3V18H5ZM9.05 13.95V1.35V13.95Z" fill="#3B4046"/>
</svg>
