<svg width="28" height="37" viewBox="0 0 28 37" fill="none" xmlns="http://www.w3.org/2000/svg">
<path d="M7.58117 25.74V34.78H8.38117V25.74H7.58117ZM6.15117 29.32V30H7.88117V29.32H6.15117ZM5.58117 25.93V34.33H6.37117V25.93H5.58117ZM1.02117 26.78V32.36H4.47117V26.78H1.02117ZM3.69117 27.44V31.7H1.80117V27.44H3.69117ZM16.5004 25.74V34.78H17.3304V25.74H16.5004ZM14.3904 29.36V30.05H16.8704V29.36H14.3904ZM13.6004 26.71V26.85C13.6004 29.21 12.5204 31.13 9.89039 32.42L10.3504 33.07C13.3504 31.57 14.4204 29.29 14.4204 26.71H13.6004ZM10.2804 26.71V27.39H14.0404V26.71H10.2804ZM21.4996 26.73V27.65C21.4996 28.94 20.5796 30.11 19.2196 30.59L19.6496 31.25C21.1696 30.7 22.1896 29.31 22.1896 27.65V26.73H21.4996ZM21.6596 26.73V27.65C21.6596 29.24 22.6996 30.56 24.1996 31.07L24.6296 30.42C23.2896 29.97 22.3496 28.87 22.3496 27.65V26.73H21.6596ZM19.4396 26.49V27.16H24.3896V26.49H19.4396ZM25.6696 25.75V32.36H26.5096V25.75H25.6696ZM20.6996 33.9V34.58H26.7796V33.9H20.6996ZM20.6996 31.74V34.2H21.5196V31.74H20.6996Z" fill="#3B4046"/>
<circle cx="9.5" cy="6.5" r="6.5" fill="#FFF75A"/>
<path d="M10.9175 10.325H19.805V8.975H10.9175V10.325ZM10.9175 12.35H15.98V11H10.9175V12.35ZM10.9175 8.3H19.805V6.95H10.9175V8.3ZM7.7 17.3V2H23V17.3H7.7ZM9.05 15.95H21.65V3.35H9.05V15.95ZM5 20V4.7H6.35V18.65H20.3V20H5ZM9.05 15.95V3.35V15.95Z" fill="#3B4046"/>
</svg>
