<svg width="100" height="100" viewBox="0 0 100 100" fill="none" xmlns="http://www.w3.org/2000/svg">
<circle cx="50" cy="50" r="50" fill="#F4F4F4"/>
<path d="M50 49.6715C46.5625 49.6715 43.75 48.5668 41.5625 46.3575C39.375 44.1481 38.2812 41.3076 38.2812 37.8358C38.2812 34.3639 39.375 31.5234 41.5625 29.314C43.75 27.1047 46.5625 26 50 26C53.4375 26 56.25 27.1047 58.4375 29.314C60.625 31.5234 61.7188 34.3639 61.7188 37.8358C61.7188 41.3076 60.625 44.1481 58.4375 46.3575C56.25 48.5668 53.4375 49.6715 50 49.6715ZM25 75V67.5829C25 65.584 25.4948 63.8744 26.4844 62.4541C27.474 61.0338 28.75 59.9554 30.3125 59.219C33.8021 57.6409 37.1484 56.4573 40.3516 55.6683C43.5547 54.8792 46.7708 54.4847 50 54.4847C53.2292 54.4847 56.4323 54.8924 59.6094 55.7077C62.7865 56.5231 66.1198 57.6935 69.6094 59.219C71.224 59.9554 72.526 61.0338 73.5156 62.4541C74.5052 63.8744 75 65.584 75 67.5829V75H25ZM29.6875 70.2657H70.3125V67.5829C70.3125 66.7413 70.0651 65.9391 69.5703 65.1763C69.0755 64.4136 68.4635 63.8481 67.7344 63.4799C64.401 61.8492 61.3542 60.7313 58.5938 60.1264C55.8333 59.5215 52.9688 59.219 50 59.219C47.0312 59.219 44.1406 59.5215 41.3281 60.1264C38.5156 60.7313 35.4688 61.8492 32.1875 63.4799C31.4583 63.8481 30.8594 64.4136 30.3906 65.1763C29.9219 65.9391 29.6875 66.7413 29.6875 67.5829V70.2657ZM50 44.9372C52.0312 44.9372 53.7109 44.2665 55.0391 42.9251C56.3672 41.5837 57.0312 39.8873 57.0312 37.8358C57.0312 35.7842 56.3672 34.0878 55.0391 32.7464C53.7109 31.405 52.0312 30.7343 50 30.7343C47.9688 30.7343 46.2891 31.405 44.9609 32.7464C43.6328 34.0878 42.9688 35.7842 42.9688 37.8358C42.9688 39.8873 43.6328 41.5837 44.9609 42.9251C46.2891 44.2665 47.9688 44.9372 50 44.9372Z" fill="#C1C1C1"/>
<path d="M96.5 84C96.5 92.5604 89.5604 99.5 81 99.5C72.4396 99.5 65.5 92.5604 65.5 84C65.5 75.4396 72.4396 68.5 81 68.5C89.5604 68.5 96.5 75.4396 96.5 84Z" fill="#1E2329" stroke="white"/>
<path d="M81.5 87.7625C82.4 87.7625 83.1562 87.4563 83.7687 86.8438C84.3812 86.2312 84.6875 85.4688 84.6875 84.5562C84.6875 83.6562 84.3812 82.9031 83.7687 82.2969C83.1562 81.6906 82.4 81.3875 81.5 81.3875C80.5875 81.3875 79.8281 81.6906 79.2219 82.2969C78.6156 82.9031 78.3125 83.6562 78.3125 84.5562C78.3125 85.4688 78.6156 86.2312 79.2219 86.8438C79.8281 87.4563 80.5875 87.7625 81.5 87.7625ZM81.5 86.6375C80.9 86.6375 80.4062 86.4406 80.0187 86.0469C79.6312 85.6531 79.4375 85.1562 79.4375 84.5562C79.4375 83.9688 79.6312 83.4812 80.0187 83.0938C80.4062 82.7063 80.9 82.5125 81.5 82.5125C82.0875 82.5125 82.5781 82.7063 82.9719 83.0938C83.3656 83.4812 83.5625 83.9688 83.5625 84.5562C83.5625 85.1562 83.3656 85.6531 82.9719 86.0469C82.5781 86.4406 82.0875 86.6375 81.5 86.6375ZM75.125 90.5C74.825 90.5 74.5625 90.3875 74.3375 90.1625C74.1125 89.9375 74 89.675 74 89.375V79.7563C74 79.4688 74.1125 79.2094 74.3375 78.9781C74.5625 78.7469 74.825 78.6313 75.125 78.6313H77.8813L79.25 77H83.75L85.1188 78.6313H87.875C88.1625 78.6313 88.4219 78.7469 88.6531 78.9781C88.8844 79.2094 89 79.4688 89 79.7563V89.375C89 89.675 88.8844 89.9375 88.6531 90.1625C88.4219 90.3875 88.1625 90.5 87.875 90.5H75.125ZM87.875 89.375V79.7563H84.5938L83.225 78.125H79.775L78.4062 79.7563H75.125V89.375H87.875Z" fill="white"/>
</svg>
