<svg width="28" height="37" viewBox="0 0 28 37" fill="none" xmlns="http://www.w3.org/2000/svg">
<path d="M4.32117 26.36V27.05C4.32117 28.59 2.62117 29.97 1.03117 30.27L1.40117 30.96C3.21117 30.55 5.04117 29.02 5.04117 27.05V26.36H4.32117ZM4.47117 26.36V27.05C4.47117 29.03 6.31117 30.55 8.11117 30.96L8.48117 30.27C6.90117 29.97 5.19117 28.6 5.19117 27.05V26.36H4.47117ZM0.701172 32.88V33.56H8.89117V32.88H0.701172ZM10.8704 26.66V27.34H16.6104V26.66H10.8704ZM9.90039 32.83V33.53H18.0704V32.83H9.90039ZM16.2504 26.66V27.77C16.2504 29.07 16.2504 30.36 15.8604 32.1L16.6804 32.18C17.0604 30.33 17.0604 29.1 17.0604 27.77V26.66H16.2504ZM16.4604 29.16L10.6304 29.4L10.7504 30.09L16.4604 29.78V29.16ZM25.9196 25.74V30.75H26.7096V25.74H25.9196ZM24.4896 27.88V28.56H26.1996V27.88H24.4896ZM23.9296 25.9V30.67H24.7096V25.9H23.9296ZM20.7896 31.17V34.66H26.7096V31.17H25.9096V32.2H21.6096V31.17H20.7896ZM21.6096 32.85H25.9096V33.98H21.6096V32.85ZM19.5096 29.78V30.45H20.0896C21.3996 30.45 22.3496 30.41 23.4896 30.18L23.4096 29.51C22.2996 29.73 21.3596 29.78 20.0896 29.78H19.5096ZM19.4896 26.27V26.94H22.0896V27.98H19.5096V30.3H20.3096V28.61H22.8896V26.27H19.4896Z" fill="#3B4046"/>
<path d="M20.75 18.1591V3.22727H9.35417V2H22V18.1591H20.75ZM8.25 18.1386L13.25 16.0318L18.25 18.1386V5.68182H8.25V18.1386ZM7 20V4.45455H19.5208V20L13.25 17.4023L7 20Z" fill="#3B4046"/>
</svg>
