<svg width="28" height="35" viewBox="0 0 28 35" fill="none" xmlns="http://www.w3.org/2000/svg">
<path d="M4.32117 24.36V25.05C4.32117 26.59 2.62117 27.97 1.03117 28.27L1.40117 28.96C3.21117 28.55 5.04117 27.02 5.04117 25.05V24.36H4.32117ZM4.47117 24.36V25.05C4.47117 27.03 6.31117 28.55 8.11117 28.96L8.48117 28.27C6.90117 27.97 5.19117 26.6 5.19117 25.05V24.36H4.47117ZM0.701172 30.88V31.56H8.89117V30.88H0.701172ZM10.8704 24.66V25.34H16.6104V24.66H10.8704ZM9.90039 30.83V31.53H18.0704V30.83H9.90039ZM16.2504 24.66V25.77C16.2504 27.07 16.2504 28.36 15.8604 30.1L16.6804 30.18C17.0604 28.33 17.0604 27.1 17.0604 25.77V24.66H16.2504ZM16.4604 27.16L10.6304 27.4L10.7504 28.09L16.4604 27.78V27.16ZM25.9196 23.74V28.75H26.7096V23.74H25.9196ZM24.4896 25.88V26.56H26.1996V25.88H24.4896ZM23.9296 23.9V28.67H24.7096V23.9H23.9296ZM20.7896 29.17V32.66H26.7096V29.17H25.9096V30.2H21.6096V29.17H20.7896ZM21.6096 30.85H25.9096V31.98H21.6096V30.85ZM19.5096 27.78V28.45H20.0896C21.3996 28.45 22.3496 28.41 23.4896 28.18L23.4096 27.51C22.2996 27.73 21.3596 27.78 20.0896 27.78H19.5096ZM19.4896 24.27V24.94H22.0896V25.98H19.5096V28.3H20.3096V26.61H22.8896V24.27H19.4896Z" fill="#3B4046"/>
<path d="M20.75 16.1591V1.22727H9.35417V0H22V16.1591H20.75ZM8.25 16.1386L13.25 14.0318L18.25 16.1386V3.68182H8.25V16.1386ZM7 18V2.45455H19.5208V18L13.25 15.4023L7 18Z" fill="#3B4046"/>
</svg>
