<svg width="23" height="37" viewBox="0 0 23 37" fill="none" xmlns="http://www.w3.org/2000/svg">
<path d="M5.21078 29.94V30.62H5.90078C7.74078 30.62 8.78078 30.58 10.0208 30.36L9.93078 29.69C8.72078 29.91 7.71078 29.94 5.90078 29.94H5.21078ZM5.21078 26.3V30.26H6.03078V26.97H9.34078V26.3H5.21078ZM5.77078 28.09V28.76H9.17078V28.09H5.77078ZM6.13078 31.54V34.66H11.8108V31.54H6.13078ZM11.0008 32.2V33.99H6.94078V32.2H11.0008ZM10.9808 25.74V31.06H11.8108V25.74H10.9808ZM11.5808 27.98V28.68H13.1508V27.98H11.5808ZM15.89 26.28V27.49C15.89 28.52 15.18 29.71 14 30.24L14.45 30.89C15.78 30.28 16.55 28.85 16.55 27.49V26.28H15.89ZM16.02 26.28V27.49C16.02 28.84 16.76 30.11 18.07 30.66L18.51 30.02C17.35 29.55 16.68 28.52 16.68 27.49V26.28H16.02ZM20.82 25.75V31.21H21.61V25.75H20.82ZM19.36 28.09V28.78H21.07V28.09H19.36ZM18.88 25.9V31.16H19.67V25.9H18.88ZM15.55 31.7V32.38H20.79V34.78H21.61V31.7H15.55Z" fill="black"/>
<path d="M20.9 20L14.325 13.425C13.825 13.8583 13.2417 14.1958 12.575 14.4375C11.9083 14.6792 11.2 14.8 10.45 14.8C8.65 14.8 7.125 14.175 5.875 12.925C4.625 11.675 4 10.1667 4 8.4C4 6.63333 4.625 5.125 5.875 3.875C7.125 2.625 8.64167 2 10.425 2C12.1917 2 13.6958 2.625 14.9375 3.875C16.1792 5.125 16.8 6.63333 16.8 8.4C16.8 9.11667 16.6833 9.80833 16.45 10.475C16.2167 11.1417 15.8667 11.7667 15.4 12.35L22 18.9L20.9 20ZM10.425 13.3C11.775 13.3 12.925 12.8208 13.875 11.8625C14.825 10.9042 15.3 9.75 15.3 8.4C15.3 7.05 14.825 5.89583 13.875 4.9375C12.925 3.97917 11.775 3.5 10.425 3.5C9.05833 3.5 7.89583 3.97917 6.9375 4.9375C5.97917 5.89583 5.5 7.05 5.5 8.4C5.5 9.75 5.97917 10.9042 6.9375 11.8625C7.89583 12.8208 9.05833 13.3 10.425 13.3V13.3Z" fill="black"/>
</svg>
