<svg width="18" height="18" viewBox="0 0 18 18" fill="none" xmlns="http://www.w3.org/2000/svg">
<path d="M16.9 18L10.325 11.425C9.825 11.8583 9.24167 12.1958 8.575 12.4375C7.90833 12.6792 7.2 12.8 6.45 12.8C4.65 12.8 3.125 12.175 1.875 10.925C0.625 9.675 0 8.16667 0 6.4C0 4.63333 0.625 3.125 1.875 1.875C3.125 0.625 4.64167 0 6.425 0C8.19167 0 9.69583 0.625 10.9375 1.875C12.1792 3.125 12.8 4.63333 12.8 6.4C12.8 7.11667 12.6833 7.80833 12.45 8.475C12.2167 9.14167 11.8667 9.76667 11.4 10.35L18 16.9L16.9 18ZM6.425 11.3C7.775 11.3 8.925 10.8208 9.875 9.8625C10.825 8.90417 11.3 7.75 11.3 6.4C11.3 5.05 10.825 3.89583 9.875 2.9375C8.925 1.97917 7.775 1.5 6.425 1.5C5.05833 1.5 3.89583 1.97917 2.9375 2.9375C1.97917 3.89583 1.5 5.05 1.5 6.4C1.5 7.75 1.97917 8.90417 2.9375 9.8625C3.89583 10.8208 5.05833 11.3 6.425 11.3Z" fill="#D1D1D1"/>
</svg>
