<svg width="19" height="35" viewBox="0 0 19 35" fill="none" xmlns="http://www.w3.org/2000/svg">
<path d="M1.21078 27.94V28.62H1.90078C3.74078 28.62 4.78078 28.58 6.02078 28.36L5.93078 27.69C4.72078 27.91 3.71078 27.94 1.90078 27.94H1.21078ZM1.21078 24.3V28.26H2.03078V24.97H5.34078V24.3H1.21078ZM1.77078 26.09V26.76H5.17078V26.09H1.77078ZM2.13078 29.54V32.66H7.81078V29.54H2.13078ZM7.00078 30.2V31.99H2.94078V30.2H7.00078ZM6.98078 23.74V29.06H7.81078V23.74H6.98078ZM7.58078 25.98V26.68H9.15078V25.98H7.58078ZM11.89 24.28V25.49C11.89 26.52 11.18 27.71 10 28.24L10.45 28.89C11.78 28.28 12.55 26.85 12.55 25.49V24.28H11.89ZM12.02 24.28V25.49C12.02 26.84 12.76 28.11 14.07 28.66L14.51 28.02C13.35 27.55 12.68 26.52 12.68 25.49V24.28H12.02ZM16.82 23.75V29.21H17.61V23.75H16.82ZM15.36 26.09V26.78H17.07V26.09H15.36ZM14.88 23.9V29.16H15.67V23.9H14.88ZM11.55 29.7V30.38H16.79V32.78H17.61V29.7H11.55Z" fill="#3B4046"/>
<path d="M16.9 18L10.325 11.425C9.825 11.8583 9.24167 12.1958 8.575 12.4375C7.90833 12.6792 7.2 12.8 6.45 12.8C4.65 12.8 3.125 12.175 1.875 10.925C0.625 9.675 0 8.16667 0 6.4C0 4.63333 0.625 3.125 1.875 1.875C3.125 0.625 4.64167 0 6.425 0C8.19167 0 9.69583 0.625 10.9375 1.875C12.1792 3.125 12.8 4.63333 12.8 6.4C12.8 7.11667 12.6833 7.80833 12.45 8.475C12.2167 9.14167 11.8667 9.76667 11.4 10.35L18 16.9L16.9 18ZM6.425 11.3C7.775 11.3 8.925 10.8208 9.875 9.8625C10.825 8.90417 11.3 7.75 11.3 6.4C11.3 5.05 10.825 3.89583 9.875 2.9375C8.925 1.97917 7.775 1.5 6.425 1.5C5.05833 1.5 3.89583 1.97917 2.9375 2.9375C1.97917 3.89583 1.5 5.05 1.5 6.4C1.5 7.75 1.97917 8.90417 2.9375 9.8625C3.89583 10.8208 5.05833 11.3 6.425 11.3Z" fill="#3B4046"/>
</svg>
