<svg width="19" height="37" viewBox="0 0 19 37" fill="none" xmlns="http://www.w3.org/2000/svg">
<path d="M3.02078 26.2V27.13C3.02078 28.48 2.13078 29.67 0.770781 30.16L1.20078 30.83C2.72078 30.25 3.70078 28.84 3.70078 27.13V26.2H3.02078ZM3.17078 26.2V27.19C3.17078 28.76 4.15078 30.11 5.62078 30.65L6.04078 29.99C4.74078 29.54 3.84078 28.41 3.84078 27.19V26.2H3.17078ZM6.98078 25.74V31.21H7.81078V25.74H6.98078ZM7.58078 28.12V28.82H9.15078V28.12H7.58078ZM1.94078 31.66V32.35H6.98078V34.78H7.81078V31.66H1.94078ZM16.87 25.74V34.78H17.67V25.74H16.87ZM13.58 28.98V29.67H15.31V28.98H13.58ZM15.06 25.95V34.32H15.84V25.95H15.06ZM11.84 27.14V28.29C11.84 29.95 11.14 31.6 9.88 32.36L10.39 32.98C11.72 32.14 12.48 30.27 12.48 28.29V27.14H11.84ZM12.01 27.14V28.29C12.01 30.18 12.74 31.96 14.06 32.76L14.57 32.15C13.33 31.43 12.65 29.86 12.65 28.29V27.14H12.01ZM10.13 26.79V27.48H14.26V26.79H10.13Z" fill="#2A2E34"/>
<path d="M4.525 18C4.10833 18 3.75417 17.8542 3.4625 17.5625C3.17083 17.2708 3.025 16.9167 3.025 16.5V2.25H2V0.75H6.7V0H13.3V0.75H18V2.25H16.975V16.5C16.975 16.9 16.825 17.25 16.525 17.55C16.225 17.85 15.875 18 15.475 18H4.525ZM15.475 2.25H4.525V16.5H15.475V2.25ZM7.175 14.35H8.675V4.375H7.175V14.35ZM11.325 14.35H12.825V4.375H11.325V14.35ZM4.525 2.25V16.5V2.25Z" fill="#2A2E34"/>
</svg>
