<svg width="22" height="22" viewBox="0 0 22 22" fill="none" xmlns="http://www.w3.org/2000/svg">
<path d="M4.125 17.8751H5.13333L15.2854 7.72298L14.2771 6.71465L4.125 16.8667V17.8751ZM18.1958 6.73757L15.2625 3.80423L16.225 2.84173C16.4847 2.58201 16.8056 2.45215 17.1875 2.45215C17.5694 2.45215 17.8903 2.58201 18.15 2.84173L19.1583 3.85006C19.4181 4.10979 19.5479 4.43062 19.5479 4.81257C19.5479 5.19451 19.4181 5.51534 19.1583 5.77507L18.1958 6.73757ZM17.2333 7.70006L5.68333 19.2501H2.75V16.3167L14.3 4.76673L17.2333 7.70006ZM14.7812 7.21881L14.2771 6.71465L15.2854 7.72298L14.7812 7.21881Z" fill="black"/>
</svg>
