<svg width="32" height="32" viewBox="0 0 32 32" fill="none" xmlns="http://www.w3.org/2000/svg">
<rect width="32" height="32" fill="#1E2329"/>
<path d="M24.4085 13.3969L18.7057 12.5681L16.1564 7.39981C16.0867 7.25831 15.9722 7.14376 15.8307 7.07413C15.4758 6.89893 15.0445 7.04493 14.8671 7.39981L12.3178 12.5681L6.61495 13.3969C6.45772 13.4193 6.31397 13.4935 6.20391 13.6058C6.07086 13.7425 5.99754 13.9265 6.00006 14.1173C6.00259 14.3081 6.08076 14.4901 6.21739 14.6233L10.3435 18.646L9.36866 24.3264C9.3458 24.4585 9.36042 24.5944 9.41086 24.7187C9.46131 24.8429 9.54556 24.9505 9.65406 25.0293C9.76257 25.1082 9.89098 25.155 10.0247 25.1645C10.1585 25.1741 10.2923 25.1459 10.4108 25.0833L15.5117 22.4015L20.6126 25.0833C20.7519 25.1574 20.9136 25.1821 21.0686 25.1552C21.4594 25.0878 21.7222 24.7172 21.6548 24.3264L20.68 18.646L24.8061 14.6233C24.9184 14.5132 24.9925 14.3694 25.0149 14.2122C25.0756 13.8191 24.8016 13.4553 24.4085 13.3969ZM18.9438 18.08L19.7546 22.8035L15.5117 20.5754L11.2689 22.8058L12.0797 18.0822L8.64766 14.7356L13.3914 14.046L15.5117 9.74923L17.632 14.046L22.3758 14.7356L18.9438 18.08Z" fill="white"/>
</svg>
